<svg xmlns="http://www.w3.org/2000/svg" width="485" height="292" viewBox="0 0 485 292">
    <g fill="none" fill-rule="evenodd">
        <path fill="#263238" fill-rule="nonzero" d="M484.96 290.632c0 .112-108.48.208-242.272.208C108.896 290.84.4 290.744.4 290.632c0-.112 108.456-.208 242.288-.208s242.272.088 242.272.208z"/>
        <g fill-rule="nonzero" transform="translate(24.4 -.4)">
            <path fill="#FFF" d="M95.48 16.04h245.896v191.336H95.48z"/>
            <path fill="#263238" d="M341.376 207.376c0-1.432-.072-75.84-.176-191.336l.176.168H95.504l.208-.208v191.336l-.184-.192 245.896.192-245.896.184h-.184v-.184V15.792H341.616v.176c-.136 115.568-.24 189.976-.24 191.408z"/>
            <path fill="#263238" d="M163.08 191.304c-.12 0-.208-20.8-.208-46.448s.088-46.456.208-46.456.208 20.8.208 46.456c0 25.656-.08 46.448-.208 46.448zM269.808 191.304c-.12 0-.208-20.8-.208-46.448s.088-46.456.208-46.456.208 20.8.208 46.456c0 25.656-.096 46.448-.208 46.448zM199.52 191.304c-.112 0-.208-26.584-.208-59.376s.096-59.392.208-59.392c.112 0 .208 26.584.208 59.392 0 32.808-.088 59.376-.208 59.376zM125.68 191.304c-.12 0-.208-26.584-.208-59.376s.088-59.392.208-59.392.208 26.584.208 59.392c0 32.808-.096 59.376-.208 59.376zM311.688 191.304c-.112 0-.208-26.584-.208-59.376s.096-59.392.208-59.392c.112 0 .208 26.584.208 59.392 0 32.808-.088 59.376-.208 59.376zM231.472 191.304c-.12 0-.208-30.696-.208-68.56 0-37.864.088-68.576.208-68.576s.208 30.696.208 68.576c0 37.88-.096 68.56-.208 68.56z"/>
            <path fill="#263238" d="M163.968 98.4a.872.872 0 1 1-1.744 0 .872.872 0 0 1 1.744 0z"/>
            <circle cx="199.528" cy="72.536" r="1" fill="#263238"/>
            <path fill="#263238" d="M199.52 75.592a3.056 3.056 0 1 1 3.056-3.056 3.064 3.064 0 0 1-3.056 3.056zm0-5.912a2.856 2.856 0 1 0 2.856 2.856 2.864 2.864 0 0 0-2.856-2.856z"/>
            <circle cx="231.472" cy="54.168" r="1" fill="#263238"/>
            <circle cx="269.808" cy="99.272" r="1" fill="#263238"/>
            <circle cx="311.712" cy="72.536" r="1" fill="#263238"/>
            <path fill="#263238" d="M126.544 73.408a.872.872 0 1 1-.864-.872.864.864 0 0 1 .864.872z"/>
            <path fill="#E8505B" d="M319.944 114.568a3.2 3.2 0 0 1-.688.224c-.674.18-1.334.408-1.976.68a19.048 19.048 0 0 0-6.352 4.8c-2.4 2.576-4.76 6.16-7.744 10.192a49.912 49.912 0 0 1-5.264 6.112 29.952 29.952 0 0 1-3.416 2.824 24 24 0 0 1-4.12 2.248 23.2 23.2 0 0 1-9.856 1.656 25.936 25.936 0 0 1-5.304-.664 13.816 13.816 0 0 1-5.136-2.256 16.488 16.488 0 0 1-4-4.184c-1.104-1.6-2.096-3.296-3.056-5.016-1.92-3.464-3.904-6.952-6.168-10.456-2.264-3.504-4.28-7.28-6.576-10.96a52.248 52.248 0 0 0-8.056-10.4 23.64 23.64 0 0 0-5.408-3.872 18.008 18.008 0 0 0-6.4-1.88 22.552 22.552 0 0 0-13.32 2.848 33.6 33.6 0 0 0-10.144 9.464 104.448 104.448 0 0 0-7.256 11.656 117.88 117.88 0 0 1-7.024 11.432 55.672 55.672 0 0 1-8.504 9.688 30.168 30.168 0 0 1-2.464 1.968 28.184 28.184 0 0 1-2.616 1.704 22.76 22.76 0 0 1-5.664 2.336c-.971.259-1.96.443-2.96.552-.493.063-.99.09-1.488.08h-1.48a22.512 22.512 0 0 1-5.672-1.056 38.4 38.4 0 0 1-9.6-5.008c-2.848-1.96-5.448-4-8-5.824a42.072 42.072 0 0 0-7.592-4.6 25.376 25.376 0 0 0-7.56-2.152 18.672 18.672 0 0 0-6.792.44c-.5.125-.992.282-1.472.472a9.12 9.12 0 0 0-1.376.544 18.4 18.4 0 0 0-2.4 1.328 26.32 26.32 0 0 0-3.608 2.888l-1.256 1.376a11.2 11.2 0 0 0-1.008 1.176l-1.272 1.672c-.139.2-.297.384-.472.552.096-.223.22-.432.368-.624l1.176-1.752c.295-.43.618-.838.968-1.224l1.232-1.432a24.736 24.736 0 0 1 3.608-3.04 18.088 18.088 0 0 1 2.4-1.408c.449-.235.917-.43 1.4-.584a11.6 11.6 0 0 1 1.512-.52 19.12 19.12 0 0 1 7.024-.56 25.888 25.888 0 0 1 7.808 2.12 43.064 43.064 0 0 1 7.792 4.608c2.576 1.824 5.192 3.832 8 5.744a37.52 37.52 0 0 0 9.36 4.8c1.754.553 3.571.879 5.408.968h1.4c.468.007.936-.023 1.4-.088a18.592 18.592 0 0 0 2.8-.536 25.464 25.464 0 0 0 10.304-5.76 54.808 54.808 0 0 0 8.288-9.512 118.92 118.92 0 0 0 6.936-11.32 104.68 104.68 0 0 1 7.32-11.8 34.928 34.928 0 0 1 10.528-9.808 24.424 24.424 0 0 1 6.848-2.592 24.048 24.048 0 0 1 7.2-.408c2.392.238 4.718.925 6.856 2.024 2.083 1.078 4 2.452 5.688 4.08a53.888 53.888 0 0 1 8.232 10.648c2.304 3.72 4.352 7.472 6.536 10.984a221.983 221.983 0 0 1 6.152 10.528c1.888 3.448 3.784 6.824 6.712 8.896a12.8 12.8 0 0 0 4.8 2.128c1.672.393 3.38.618 5.096.672 3.235.186 6.471-.33 9.488-1.512a23.28 23.28 0 0 0 4-2.128 28.8 28.8 0 0 0 3.344-2.704 48.648 48.648 0 0 0 5.256-5.96c3.024-4 5.48-7.536 7.952-10.096a18.4 18.4 0 0 1 6.608-4.72c.66-.257 1.343-.447 2.04-.568a3.68 3.68 0 0 1 .68-.128z"/>
            <path fill="#263238" d="M124.808 37.512h42.872v2.384h-42.872zM124.808 43.096h21.184v2.384h-21.184zM98.792.424h238.984a3.608 3.608 0 0 1 3.6 3.576v12H95.2V4A3.608 3.608 0 0 1 98.792.424z"/>
            <path fill="#FFF" d="M107.944 8.536a1.68 1.68 0 1 1-3.36 0 1.68 1.68 0 0 1 3.36 0zM115.28 8.536a1.68 1.68 0 1 1-3.36 0 1.68 1.68 0 0 1 3.36 0zM122.608 8.536a1.68 1.68 0 1 1-3.36 0 1.68 1.68 0 0 1 3.36 0z"/>
            <rect width="100.968" height="28.312" x=".656" y="128.632" fill="#E6E6E6" rx="2.584"/>
            <path fill="#FFF" d="M21.936 147.504a6.152 6.152 0 1 1-.952-8.648 6.144 6.144 0 0 1 .952 8.648z"/>
            <path fill="#263238" d="M20.6 141.568a29.104 29.104 0 0 1-3.336 3.536c-.272.272-.544.536-.8.8l-.144.144-.144-.144a19.352 19.352 0 0 1-2.488-2.776 19.352 19.352 0 0 1 2.776 2.488h-.28l.8-.8a28.632 28.632 0 0 1 3.616-3.248zM91.768 140.712c0 .112-12.8.208-28.664.208s-28.664-.096-28.664-.208c0-.112 12.8-.208 28.664-.208s28.664.088 28.664.208zM68.256 146.312c0 .112-7.424.208-16.576.208-9.152 0-16.6-.096-16.6-.208 0-.112 7.416-.208 16.568-.208 9.152 0 16.608.088 16.608.208z"/>
            <rect width="99.544" height="41.336" x="30.464" y="60.424" fill="#E0E0E0" rx="2.096"/>
            <path fill="#E8505B" d="M51.136 73.488a4.64 4.64 0 1 1-9.28 0 4.64 4.64 0 0 1 9.28 0zM55.784 70.28H88.12v1.792H55.784z"/>
            <path fill="#FFF" d="M55.784 74.36h62.896v1.792H55.784z"/>
            <path fill="#E8505B" d="M51.136 87.752a4.64 4.64 0 1 1-4.64-4.64 4.632 4.632 0 0 1 4.64 4.64zM55.784 84.544h16.512v1.792H55.784z"/>
            <path fill="#FFF" d="M55.784 88.624h62.896v1.792H55.784z"/>
            <rect width="128.432" height="54.592" x="48.008" y="169.136" fill="#E0E0E0" rx="3.168"/>
            <path fill="#E8505B" d="M71.496 195.512l-.072-11.072a14.152 14.152 0 0 0-9.144 3.568 13.08 13.08 0 0 0-4.4 11.464c.056.528.144 1.064.256 1.6a.072.072 0 0 1 0 .04l13.344-3 .016-2.6zM85.248 192.104a13.144 13.144 0 0 0-10.768-7.536l-.424-.04H72.912l.072 11.072v2.6l13.36 2.864a12.8 12.8 0 0 0 .296-2.872 14.32 14.32 0 0 0-1.392-6.088z"/>
            <path fill="#000" d="M85.248 192.104a13.144 13.144 0 0 0-10.768-7.536l-.424-.04H72.912l.072 11.072v2.6l13.36 2.864a12.8 12.8 0 0 0 .296-2.872 14.32 14.32 0 0 0-1.392-6.088z" opacity=".2"/>
            <path fill="#E8505B" d="M72.208 199.464l-13.336 3.008a13.68 13.68 0 0 0 26.704-.088l-13.344-2.912"/>
            <path fill="#000" d="M72.208 199.464l-13.336 3.008a13.68 13.68 0 0 0 26.704-.088l-13.344-2.912" opacity=".1"/>
            <path fill="#FFF" d="M95.6 187.752h67.784v3.072H95.6zM95.6 195.848h67.784v3.072H95.6zM95.6 204.8h36.64v3.072H95.6z"/>
            <rect width="133.912" height="128.936" x="197.712" y="130.424" fill="#E6E6E6" rx="6.728"/>
            <path fill="#263238" d="M207.072 218.752h4.392v1.264h-4.392zM217.016 225.52h5.624v1.264h-5.624zM236.576 225.52h5.624v1.264h-5.624zM256.144 225.52h5.624v1.264h-5.624zM275.712 225.52h5.624v1.264h-5.624zM295.272 225.52h5.624v1.264h-5.624zM314.84 225.52h5.624v1.264h-5.624zM207.072 201.84h4.392v1.264h-4.392zM207.072 170h4.392v1.264h-4.392zM207.072 154h4.392v1.264h-4.392zM207.296 185.92h4.392v1.264h-4.392zM320.304 220.024H318.448l-5.32.04-19.56.064-64.528.064h-15.496v-.2c0-21.6.056-40.568.072-54.176 0-6.792.048-12.232.064-16v-4.304-1.12a3.392 3.392 0 0 1 0-.376c.007.125.007.25 0 .376v5.424c0 3.768.04 9.208.064 16 0 13.6.04 32.6.072 54.176l-.208-.208h15.288l64.528.056 19.56.064 5.32.04h1.384l.616.08z"/>
            <path fill="#263238" d="M321.536 186.552c0 .12-23.2.208-51.76.208S218 186.672 218 186.552s23.2-.208 51.776-.208c28.576 0 51.76.096 51.76.208zM321.536 170.664c0 .112-23.2.208-51.76.208S218 170.776 218 170.664c0-.112 23.2-.208 51.776-.208 28.576 0 51.76.064 51.76.208zM321.536 154.664c0 .112-23.2.208-51.76.208S218 154.776 218 154.664c0-.112 23.2-.208 51.776-.208 28.576 0 51.76.064 51.76.208zM321.536 202.472c0 .112-23.2.208-51.76.208S218 202.584 218 202.472c0-.112 23.2-.208 51.776-.208 28.576 0 51.76.096 51.76.208z"/>
            <path fill="#E8505B" d="M219.08 216.592v-14.12l8.8-13.664 5.976 4.584 12.256-19.048 7.2 5.096 10.064-17.6 8.176 6.656 12.256-23.304 13.208 26.048 10.688-13.032 12.576-3.6v61.952z"/>
            <path fill="#263238" d="M321.536 149.624h-3.424l-9.648.048h.088l-10.336 13.512-.056.064h-.08l-25.888.04.176-.096-10.888 18.144-10.688 17.76-.152.256-.184-.24-14.016-19.288h.28l-12.8 19.936c-1.528 2.4-2.736 4.224-3.568 5.504-.4.624-.72 1.096-.944 1.44-.224.344-.336.48-.336.48s.096-.176.296-.504c.2-.328.512-.84.904-1.472l3.488-5.56 12.672-20 .128-.208.152.2c4.192 5.736 8.936 12.232 14.072 19.248h-.336l10.672-17.768 10.904-18.112.056-.096h26l-.128.064 10.4-13.456v-.048h.064l9.648.056h3.208l.264.096z"/>
            <path fill="#263238" d="M240.816 184.264a.992.992 0 1 1-.992-.96.968.968 0 0 1 .992.96zM270.68 167.28a.992.992 0 1 1-.992-.96.976.976 0 0 1 .992.96zM293.896 163.112a1 1 0 1 1-.992-.96.976.976 0 0 1 .992.96z"/>
            <ellipse cx="223.432" cy="242.448" fill="#FFF" rx="6.424" ry="6.184"/>
            <path fill="#FFF" d="M239.392 238.304h75.456v2.312h-75.456zM239.392 244.088h31.328v2.312h-31.328z"/>
            <rect width="88.912" height="73.744" x="288.52" y="30.28" fill="#E6E6E6" rx="3.952"/>
            <path fill="#E8505B" d="M304.032 59.8h4.792v36.184h-4.792zM325.816 56.864h4.792v39.12h-4.792zM348.384 51.896h4.792v44.088h-4.792zM337.784 78.368h4.792v17.616h-4.792z"/>
            <path fill="#000" d="M337.784 78.368h4.792v17.616h-4.792z" opacity=".2"/>
            <path fill="#E8505B" d="M309.624 55.928h4.792v40.064h-4.792z"/>
            <path fill="#000" d="M309.624 55.928h4.792v40.064h-4.792z" opacity=".1"/>
            <path fill="#E8505B" d="M331.792 47.536h4.792v48.456h-4.792z"/>
            <path fill="#000" d="M331.792 47.536h4.792v48.456h-4.792z" opacity=".1"/>
            <path fill="#E8505B" d="M360.744 47.536h4.792v48.456h-4.792z"/>
            <path fill="#000" d="M360.744 47.536h4.792v48.456h-4.792z" opacity=".2"/>
            <path fill="#E8505B" d="M354.488 37.968h4.792v58.024h-4.792z"/>
            <path fill="#000" d="M354.488 37.968h4.792v58.024h-4.792z" opacity=".1"/>
            <path fill="#E8505B" d="M315.488 70.56h4.792v25.424h-4.792z"/>
            <path fill="#000" d="M315.488 70.56h4.792v25.424h-4.792z" opacity=".2"/>
            <path fill="#263238" d="M372.392 98.184c0 .12-17.104.208-38.192.208s-38.2-.088-38.2-.208 17.096-.208 38.2-.208c21.104 0 38.192.096 38.192.208zM293.784 89.552h2.928v1h-2.928zM293.784 76.672h2.928v1h-2.928zM293.784 52.44h2.928v1h-2.928zM293.784 40.264h2.928v1h-2.928zM293.928 64.56h2.928v1h-2.928z"/>
            <rect width="91.2" height="25.568" x="186.128" y="24.28" fill="#E8505B" rx="2.584"/>
            <path fill="#FFF" d="M205.352 41.336a5.56 5.56 0 1 1-.856-7.816 5.6 5.6 0 0 1 .856 7.816z"/>
            <path fill="#263238" d="M201.008 43.464a5.6 5.6 0 0 1-.6-11.12c.205-.012.41-.012.616 0a5.6 5.6 0 0 1 4.344 9.064 5.528 5.528 0 0 1-3.744 2.056c-.205.012-.41.012-.616 0zm0-11.112a5.392 5.392 0 0 0-.616 0 5.536 5.536 0 1 0 4.928 8.968 5.536 5.536 0 0 0-4.312-9v.032z"/>
            <path fill="#E8505B" d="M204.136 35.968a22.848 22.848 0 0 1-2.992 3.2l-.728.704-.152.144-.136-.144a16.184 16.184 0 0 1-2.232-2.52c.915.654 1.76 1.402 2.52 2.232h-.288l.728-.72a23.952 23.952 0 0 1 3.28-2.896z"/>
            <path fill="#FFF" d="M268.424 35.2c0 .112-11.592.208-25.888.208-14.296 0-25.896-.096-25.896-.208 0-.112 11.592-.208 25.896-.208s25.888.088 25.888.208zM247.184 40.264c0 .112-6.696.208-14.968.208s-14.968-.096-14.968-.208c0-.112 6.704-.208 14.968-.208s14.968.08 14.968.208z"/>
        </g>
        <g fill-rule="nonzero">
            <path fill="#E8505B" d="M411.888 278.888l-5.176-5.2 9.68-9.768 7.656 7.536-.56.64c-2.52 2.848-13.024 14.28-15.352 15.536-2.608 1.408 3.752-8.744 3.752-8.744z"/>
            <path fill="#263238" d="M420.464 274.92a4.8 4.8 0 0 1-.848-3.312 4.624 4.624 0 0 1 1.552-2.984l2.736 2.704-3.44 3.592z"/>
            <path fill="#263238" d="M408.928 283.992s-2.048 3.736-1.208 3.848c.84.112 11.888-11.04 16.328-16.384l-.232-.2-12.8 13.12s-1.504-.928-2.088-.384z"/>
            <path fill="#455A64" d="M423.96 271.064a1.696 1.696 0 0 1-.144.184c-.136.152-.288.32-.448.512l-1.688 1.848a245.342 245.342 0 0 1-11.6 11.736l-1.8 1.72-.512.456a1.08 1.08 0 0 1-.184.152l.16-.176.488-.48 1.8-1.736a443.86 443.86 0 0 0 5.864-5.808 387.493 387.493 0 0 0 5.736-5.928l1.72-1.816.472-.488a.88.88 0 0 1 .136-.176z"/>
            <path fill="#455A64" d="M411.192 284.52a5.4 5.4 0 0 0-1.176-.504 6.256 6.256 0 0 0-1.28-.072c.414-.19.883-.224 1.32-.096a1.84 1.84 0 0 1 1.136.672zM412.584 280.192c-.229.03-.461.008-.68-.064a1.6 1.6 0 0 1-.64-.224c0-.048.312 0 .68.064.368.064.656.176.64.224zM412.952 278.984c0 .048-.256.096-.568.12a1.192 1.192 0 0 1-.584-.048c0-.048.256-.104.568-.12.312-.016.584 0 .584.048zM412.528 277.568c0 .04-.168.296-.44.576-.272.28-.528.496-.56.464-.032-.032.16-.296.44-.576.152-.193.343-.35.56-.464zM412.048 276.76a1.4 1.4 0 0 1-.4.728 1.432 1.432 0 0 1-.664.512c0-.04.248-.28.536-.616.288-.336.48-.648.528-.624z"/>
            <path fill="#455A64" d="M411.408 279.68c-.174.24-.384.45-.624.624-.25.198-.518.372-.8.52a2.208 2.208 0 0 1-.536.224.48.48 0 0 1-.344 0 .36.36 0 0 1-.16-.344 1.6 1.6 0 0 1 1.752-1.096 1.6 1.6 0 0 1 .616.216c.136.08.192.144.184.152a2.168 2.168 0 0 0-.8-.248 1.6 1.6 0 0 0-.88.192 1.392 1.392 0 0 0-.688.8c0 .168.128.248.304.2.158-.07.308-.155.448-.256.276-.144.543-.304.8-.48.472-.32.704-.528.728-.504z"/>
            <path fill="#455A64" d="M411.28 279.864s-.256-.048-.512-.36a1.456 1.456 0 0 1-.288-.624.88.88 0 0 1 .2-.8.352.352 0 0 1 .48.096.976.976 0 0 1 .176.384c.057.22.087.445.088.672a1.36 1.36 0 0 1-.104.608v-.608a2.992 2.992 0 0 0-.12-.632c-.048-.216-.224-.512-.408-.384a.8.8 0 0 0-.144.68c.034.207.113.404.232.576.12.143.254.274.4.392zM421.08 268.664s-.304.248-.688.744a4.296 4.296 0 0 0-.496 4.576c.272.568.544.864.52.88-.024.016-.088-.056-.2-.192a3.544 3.544 0 0 1-.424-.632 4.184 4.184 0 0 1 .512-4.704c.162-.195.344-.372.544-.528a.976.976 0 0 1 .232-.144zM416.024 265.632a23.376 23.376 0 0 1 2.088 1.904c.7.633 1.36 1.309 1.976 2.024a24.968 24.968 0 0 1-2.088-1.904 23.928 23.928 0 0 1-1.976-2.024zM418.296 275.2a7.904 7.904 0 0 1-1.272 1.6c-.452.505-.968.95-1.536 1.32 0 0 .64-.64 1.416-1.432.776-.792 1.352-1.512 1.392-1.488z"/>
            <path fill="#455A64" d="M420.184 273.288c.048 0 .088.184.168.392.08.208.176.376.144.408-.032.032-.208-.104-.304-.344s-.048-.464-.008-.456zM420 271.672c.048 0 .088.168.088.368 0 .2 0 .368-.08.368s-.08-.16-.088-.368c-.008-.208.04-.368.08-.368zM420.616 270.264s-.104.168-.2.36c-.096.192-.112.368-.16.376-.048.008-.104-.216 0-.448s.336-.352.36-.288zM421.152 269.312v.232c0 .112-.12.192-.16.168-.04-.024 0-.12 0-.232 0-.112.088-.192.16-.168z"/>
            <path fill="#E8505B" d="M372.28 287.488l.176-7.336 13.744.24-.144 10.744-.856.04c-3.792.136-19.32.456-21.84-.36-2.824-.904 8.92-3.328 8.92-3.328z"/>
            <path fill="#263238" d="M381.08 290.936a4.8 4.8 0 0 1 1.808-2.904 4.616 4.616 0 0 1 3.2-.936l-.064 3.84h-4.944z"/>
            <path fill="#263238" d="M366.528 288.872s-4.12 1.112-3.616 1.792c.504.68 16.192.952 23.128.472v-.312l-18.312-.16s-.4-1.744-1.2-1.792z"/>
            <path fill="#455A64" d="M386.24 290.824h-.92l-2.496.064c-2.112.04-5.032.056-8.256 0s-6.136-.16-8.248-.272l-2.496-.144-.68-.056h-.232c.077-.009.155-.009.232 0h.68l2.504.088c2.104.08 5.024.176 8.248.232 3.224.056 6.136.048 8.248.04h3.2a.8.8 0 0 1 .216.048z"/>
            <path fill="#455A64" d="M367.712 290.88a3.648 3.648 0 0 0-1.28-2.168c.424.16.773.475.976.88.255.378.364.836.304 1.288zM371.8 288.896s-.224-.216-.424-.536c-.2-.32-.32-.6-.28-.624.04-.024.232.216.424.536.192.32.32.592.28.624zM372.928 288.32c0 .04-.248-.112-.48-.328-.232-.216-.4-.424-.368-.456.032-.032.248.112.48.336.232.224.4.416.368.448zM373.656 287.064c-.232.075-.478.1-.72.072a1.76 1.76 0 0 1-.72-.08c.23-.086.477-.113.72-.08a1.6 1.6 0 0 1 .72.088zM373.88 286.128a1.4 1.4 0 0 1-.8.216 1.416 1.416 0 0 1-.8-.12 4.56 4.56 0 0 1 .8-.048 4 4 0 0 1 .8-.048z"/>
            <path fill="#455A64" d="M371.36 287.688a2.848 2.848 0 0 1-.888 0 5.048 5.048 0 0 1-.936-.224 2.528 2.528 0 0 1-.536-.232.48.48 0 0 1-.208-.28.32.32 0 0 1 .136-.344 1.6 1.6 0 0 1 1.992.504c.137.174.232.376.28.592.016.08.016.16 0 .24a2.688 2.688 0 0 0-.392-.76 1.6 1.6 0 0 0-.744-.504 1.384 1.384 0 0 0-1.056.056c-.144.104-.088.264.064.36.155.09.318.166.488.224.297.107.602.19.912.248.552.08.888.088.888.12z"/>
            <path fill="#455A64" d="M371.128 287.728a.88.88 0 0 1-.088-.616c.03-.233.114-.455.248-.648a.888.888 0 0 1 .744-.432.336.336 0 0 1 .264.408.912.912 0 0 1-.152.392 2.312 2.312 0 0 1-.432.528c-.138.16-.314.28-.512.352 0 0 .184-.16.432-.432.142-.16.268-.335.376-.52.128-.192.216-.52 0-.568-.216-.048-.448.192-.584.368a1.448 1.448 0 0 0-.264.568c-.027.199-.037.4-.032.6zM386.024 287.064s-.392-.048-1.016 0a4.288 4.288 0 0 0-3.648 2.808c-.224.584-.248.984-.28.976a.712.712 0 0 1 0-.272c.027-.253.08-.502.16-.744a4.176 4.176 0 0 1 3.752-2.888 4 4 0 0 1 .752 0c.184.072.28.12.28.12z"/>
            <path fill="#455A64" d="M384.696 281.304a23.2 23.2 0 0 1 .072 2.832c.024.942-.008 1.885-.096 2.824a23.056 23.056 0 0 1-.072-2.824c-.024-.945.008-1.89.096-2.832zM379.352 289.568c-.662.14-1.34.194-2.016.16a8.056 8.056 0 0 1-2-.192c0-.048.896 0 2.008 0s2-.016 2.008.032zM382.048 289.608s-.08.192-.176.392c-.096.2-.144.384-.192.384-.048 0-.072-.216 0-.456.072-.24.336-.352.368-.32zM383.08 288.36s-.056.176-.2.32c-.144.144-.288.232-.32.192-.032-.04.056-.168.2-.312.144-.144.288-.232.32-.2zM384.544 287.808c0 .048-.192.04-.392.112-.2.072-.352.168-.392.136-.04-.032.088-.216.336-.296.248-.08.464.008.448.048zM385.584 287.552c0 .048-.064.112-.176.16-.112.048-.224.04-.24 0-.016-.04.064-.112.176-.152.112-.04.224-.048.24-.008z"/>
            <path fill="#E5BAAB" d="M379.632 130.192c-5.096 15.048-14.28 42.304-14.28 42.304a23.4 23.4 0 0 1-3.808 1.824c-.916.221-1.858.316-2.8.28a.872.872 0 0 0-.856 1.416c.56.544 2.92.936 5.6.136 2.68-.8.688 3.248-.192 4.592-.88 1.344-3.36 5.728-3.2 6.328.288.872 1.36.504 2.208-.848.848-1.352 3.384-5.304 3.752-5.096.728.4-3.656 7.4-3.656 7.4s-1.008 1.224-.24 1.824c1.4 1.08 5.688-6.44 6.08-7.2.272-.504.632-.112.312.416s-4.064 6.688-2.936 7.392c1.128.704 3.784-5.432 4.856-6.576 1.224-1.288-2.448 5.136-1.384 5.904.392.288.728.448 2.576-3.272a109.264 109.264 0 0 0 4.144-11.152c3.92-7.856 15.144-32.128 18.856-48.648"/>
            <path fill="#E8505B" d="M382.336 93.464s10.912-3.152 13.064 13.544c1.344 10.456 4.416 35.72 5.6 48.712.104 1.224-.664.744-.568 1.752.104 1.176 1.144 2.128 1.144 2.968 0 2.68-3.064 2.632-3.064 2.632L370 164.432s-2.648.056-2.656-2.256c0-1.752 1.144-2.528 1.224-3.624 1.216-15.616 1.192-54.512 2.952-59.856 1.672-5.12 2.744-5.232 10.816-5.232z"/>
            <path fill="#263238" d="M384.496 94.264c.24.217.461.453.664.704.4.448.96 1.064 1.56 1.76.6.696 1.104 1.368 1.448 1.856.196.25.37.519.52.8a5.6 5.6 0 0 1-.616-.76c-.368-.472-.88-1.12-1.48-1.816a87.753 87.753 0 0 1-1.52-1.792 6 6 0 0 1-.576-.752z"/>
            <path fill="#263238" d="M385.752 93.976c-.148.077-.3.147-.456.208l-1.256.52c-1.072.432-2.56.992-4.224 1.6-1.664.608-3.2 1.056-4.288 1.384l-1.312.376a4 4 0 0 1-.488.112c.152-.073.31-.132.472-.176l1.296-.424c1.096-.352 2.608-.848 4.264-1.424 1.656-.576 3.152-1.12 4.232-1.52l1.28-.472c.151-.082.313-.143.48-.184zM373.88 95.064c.117 1.01.117 2.03 0 3.04a14.48 14.48 0 0 1 0-3.04z"/>
            <path fill="#E8505B" d="M379.208 144.472a7.328 7.328 0 0 0 5.216-1.36 15.952 15.952 0 0 0 3.712-4.104 38.304 38.304 0 0 0 6.464-18.904 83.288 83.288 0 0 0-.064-10.336 84.336 84.336 0 0 1-5.024 19.528 49.696 49.696 0 0 1-8.704 14.448"/>
            <path fill="#000" d="M379.208 144.472a7.328 7.328 0 0 0 5.216-1.36 15.952 15.952 0 0 0 3.712-4.104 38.304 38.304 0 0 0 6.464-18.904 83.288 83.288 0 0 0-.064-10.336 84.336 84.336 0 0 1-5.024 19.528 49.696 49.696 0 0 1-8.704 14.448" opacity=".2"/>
            <path fill="#263238" d="M397.192 147.936a29.192 29.192 0 0 1-2.84 2.688 37.6 37.6 0 0 1-3.416 2.544 37.6 37.6 0 0 1-9.392 4.456c-1.356.42-2.734.765-4.128 1.032a29.88 29.88 0 0 1-3.888.496l.272-.048.8-.096c.672-.08 1.6-.232 2.824-.472a38.32 38.32 0 0 0 4.104-1.064 42.352 42.352 0 0 0 4.8-1.904 43.088 43.088 0 0 0 4.528-2.528 40.752 40.752 0 0 0 3.416-2.504c.936-.8 1.664-1.416 2.152-1.888l.568-.536.2-.176zM389.368 129.888s-.064 0-.16-.04l-.456-.144-1.64-.568-5.368-2c-2.096-.8-4-1.392-5.432-1.792l-1.672-.472-.456-.136-.152-.056h.16l.464.104c.4.088.976.232 1.688.416 1.416.384 3.352.984 5.456 1.76 2.104.776 4 1.52 5.352 2.04l1.6.624.44.168.176.096z"/>
            <path fill="#263238" d="M389.368 129.888s.064-.216.216-.616l.648-1.784c.552-1.544 1.352-3.784 2.12-6.624a93.032 93.032 0 0 0 1.864-10.136 12.8 12.8 0 0 0-.256-5.992 8.12 8.12 0 0 0-1.6-2.736c-.364-.406-.752-.79-1.16-1.152a4.8 4.8 0 0 0-1.36-.912 5.464 5.464 0 0 0-3.2-.336 7.632 7.632 0 0 0-2.928 1.208c-1.8 1.152-2.632 3.152-3.248 4.952-1.224 3.68-2.328 7-3.264 9.8l-2.208 6.6c-.256.744-.456 1.344-.608 1.792a9.881 9.881 0 0 1-.224.616l.192-.632.576-1.8c.528-1.6 1.264-3.848 2.16-6.616.896-2.768 2.016-6.12 3.2-9.808a15.2 15.2 0 0 1 1.184-2.744 6.832 6.832 0 0 1 2.12-2.296 7.68 7.68 0 0 1 2.992-1.232 5.6 5.6 0 0 1 3.296.336c.517.233.99.552 1.4.944.42.363.813.756 1.176 1.176a8.208 8.208 0 0 1 1.6 2.784c.569 1.975.657 4.057.256 6.072a90.944 90.944 0 0 1-1.904 10.144c-.8 2.84-1.6 5.072-2.168 6.616-.568 1.544-.872 2.376-.872 2.376zM396.128 175.68l.632 46.512a51.752 51.752 0 0 0 1 9.552c.856 4.296 2.4 9.888 4.864 13.36 3.768 5.264 17.048 20.16 17.048 20.16l-11.2 13.064s-23.704-18.88-25.232-36.312c-.8-8.856 0-61.816 0-61.816l12.888-4.52z"/>
            <path fill="#263238" d="M369.992 164.416l-.288 120.336h18.52l3.256-104.696s5.36-3.536 6.304-8.048c1.28-6.104.704-8.952.704-8.952l-28.496 1.36z"/>
            <path fill="#455A64" d="M368.864 281.848h20.128v2.904h-20.128zM405.455 277.17l13.85-14.606 2.108 1.998-13.85 14.606z"/>
            <path fill="#263238" d="M418.52 263.632a1.16 1.16 0 0 1-.112.144l-.352.376-1.28 1.376c-1.08 1.168-2.544 2.808-4.232 4.56-1.688 1.752-3.2 3.2-4.384 4.408l-1.344 1.32-.376.352a.72.72 0 0 1-.136.12.624.624 0 0 1 .112-.144l.352-.376 1.304-1.352 4.352-4.448 4.264-4.52 1.32-1.344.376-.352a.72.72 0 0 1 .136-.12z"/>
            <path fill="#455A64" d="M384.104 163.784s0 .104-.056.304a5.072 5.072 0 0 1-1.072 2.12 16.8 16.8 0 0 1-1.416 1.44 13.872 13.872 0 0 0-1.688 1.856c-.544.8-.496 1.832-.552 2.888-.072 2.16-.152 4.616-.248 7.32-.096 2.704-.192 5.688-.296 8.872-.104 3.184-.184 6.6-.28 10.184-.192 7.2-.464 15.056-.632 23.336-.28 16.552-.528 31.536-.712 42.4-.2 10.6-.312 16.44-.336 17.6v-1.224c0-.8 0-1.992.04-3.496 0-3.056.104-7.44.184-12.848l.656-42.4c.168-8.28.448-16.168.64-23.336.112-3.592.208-7 .304-10.184.096-3.184.216-6.16.32-8.872.104-2.712.184-5.16.264-7.32.064-1.056 0-2.136.584-2.928a13.6 13.6 0 0 1 1.712-1.864c.498-.448.97-.923 1.416-1.424.323-.372.592-.786.8-1.232.124-.277.225-.563.304-.856l.064-.336zM373.032 165.232s-.152-.112-.264-.312c-.112-.2-.152-.376-.112-.392.04-.016.16.12.264.312.104.192.16.368.112.392zM374.096 166.424s-.184-.064-.344-.216c-.16-.152-.264-.312-.232-.344.032-.032.192.072.344.224.152.152.256.304.232.336zM375.48 167.272c0 .04-.192 0-.392-.112s-.336-.224-.312-.264c.024-.04.2 0 .392.112s.312.224.312.264zM376.984 167.704c0 .04-.184.04-.408 0-.224-.04-.384-.12-.376-.16.008-.04.2-.048.408 0 .208.048.384.112.376.16zM378.576 167.64c0 .048-.16.112-.384.136-.224.024-.408 0-.408-.04s.176-.088.392-.12c.216-.032.392-.016.4.024zM380.08 167.064s-.128.152-.336.24c-.208.088-.384.136-.392.088-.008-.048.128-.152.328-.24s.376-.088.4-.088zM381.36 166.144s-.08.176-.248.328c-.168.152-.336.232-.36.192-.024-.04.088-.176.248-.32.16-.144.328-.232.36-.2zM382.328 164.872c.04 0 0 .192-.152.384s-.248.32-.288.288c-.04-.032 0-.2.152-.384s.248-.312.288-.288zM382.744 163.864s.056.088 0 .16c-.056.072-.08.128-.12.112-.04-.016-.064-.088-.04-.16a.17.17 0 0 1 .16-.112zM377.824 170.776c-.048 0-.08-.184-.072-.4.008-.216.048-.4.096-.4s.08.184.072.408c-.008.224-.04.392-.096.392zM377.768 172.376c-.048 0-.08-.184-.072-.4.008-.216.056-.4.096-.4s.08.184.072.4c-.008.216-.048.4-.096.4zM377.712 173.976s-.072-.184-.064-.4c.008-.216.048-.4.096-.4s.072.184.072.4c0 .216-.056.4-.104.4zM377.664 175.576c-.048 0-.08-.184-.072-.4.008-.216.056-.4.096-.4s.08.184.072.4c-.008.216-.048.4-.096.4zM377.616 177.176c-.048 0-.08-.184-.072-.408.008-.224.048-.392.096-.392s.08.176.072.4c-.008.224-.048.4-.096.4zM377.568 178.776c-.048 0-.08-.184-.072-.408.008-.224.048-.392.096-.392s.08.176.072.4c-.008.224-.048.4-.096.4zM377.52 180.376c-.048 0-.08-.184-.072-.4.008-.216.048-.4.096-.4s.08.184.072.4c-.008.216-.048.4-.096.4zM377.472 181.976c-.048 0-.08-.184-.072-.4.008-.216.048-.4.096-.4s.08.184.072.4c-.008.216-.048.4-.096.4zM377.424 183.576s-.072-.184-.072-.4c0-.216.048-.4.096-.4s.08.184.072.4c-.008.216-.048.4-.096.4zM377.384 185.176c-.048 0-.08-.184-.072-.4.008-.216.048-.4.096-.4s.072.184.072.4c0 .216-.056.4-.096.4zM377.336 186.776c-.04 0-.08-.176-.072-.4.008-.224.048-.4.096-.4s.08.184.072.408c-.008.224-.048.4-.096.392zM377.296 188.384c-.048 0-.08-.184-.072-.408.008-.224.048-.4.096-.4s.072.184.072.408c0 .224-.048.4-.096.4zM377.256 189.984c-.048 0-.08-.184-.072-.4.008-.216.048-.4.088-.4.04 0 .08.176.072.4-.008.224-.04.4-.088.4zM377.216 191.584c-.048 0-.08-.184-.072-.4.008-.216 0-.4.088-.4s.08.184.072.4c-.008.216-.048.4-.088.4zM377.176 193.184c-.048 0-.08-.176-.08-.4 0-.224.048-.4.096-.4s.08.184.072.408c-.008.224-.048.4-.088.392zM377.136 194.792c-.048 0-.08-.184-.072-.408.008-.224 0-.4.088-.392.088.008.08.176.072.4-.008.224-.04.4-.088.4zM377.08 196.392c-.048 0-.08-.184-.072-.4.008-.216.048-.4.088-.4.04 0 .08.184.08.4 0 .216-.032.4-.096.4zM377.08 198c-.04 0-.08-.184-.072-.408.008-.224.048-.4.096-.4s.072.184.072.408c0 .224-.096.4-.096.4zM377.024 199.6c-.048 0-.08-.184-.08-.4 0-.216.048-.4.096-.4s.08.176.072.4c-.008.224-.032.4-.088.4zM376.984 201.2c-.048 0-.08-.176-.072-.4.008-.224.048-.4.088-.4.04 0 .08.184.08.408 0 .224-.048.4-.096.392zM376.952 202.808c-.048 0-.08-.184-.08-.4 0-.216.048-.4.096-.4s.08.176.072.4c-.008.224-.048.4-.088.4zM376.912 204.408s-.08-.176-.072-.4c.008-.224.048-.4.088-.4.04 0 .08.184.08.4 0 .216-.048.4-.096.4zM376.88 206.016c-.048 0-.08-.184-.072-.408.008-.224.04-.4.088-.392.048.008.08.176.072.4-.008.224-.04.4-.088.4zM376.848 207.616c-.048 0-.08-.176-.08-.4 0-.224.048-.4.096-.4s.08.184.072.4c-.008.216-.048.4-.088.4zM376.816 209.224c-.048 0-.08-.184-.08-.4 0-.216.048-.408.096-.4.048.008.08.176.072.4-.008.224-.048.4-.088.4zM376.776 210.824s-.072-.176-.072-.4c0-.224.048-.4.096-.4s.072.184.072.4c0 .216-.048.408-.096.4zM376.744 212.432c-.04 0-.08-.184-.072-.4.008-.216.048-.4.088-.4.04 0 .08.176.08.4 0 .224-.048.4-.096.4zM376.712 214.04s-.08-.184-.072-.408c.008-.224.048-.4.088-.4.04 0 .08.184.08.408 0 .224-.048.4-.096.4zM376.68 215.64s-.072-.184-.072-.4c0-.216.048-.4.088-.4.04 0 .08.176.08.4 0 .224-.048.4-.096.4zM376.656 217.248c-.048 0-.08-.184-.08-.408 0-.224.048-.4.096-.4s.08.184.072.408c-.008.224-.048.4-.088.4zM376.624 218.848c-.048 0-.08-.176-.08-.4 0-.224.048-.4.096-.4s.08.184.072.4c-.008.216-.048.4-.088.4zM376.592 220.456c-.048 0-.08-.184-.08-.4 0-.216.048-.4.096-.4s.08.176.072.4c-.008.224-.04.4-.088.4zM376.56 222.064c-.048 0-.08-.184-.072-.408.008-.224 0-.4.088-.4s.08.184.072.408c-.008.224-.04.4-.088.4zM376.528 223.664s-.08-.176-.072-.4c.008-.224 0-.4.088-.4s.08.176.08.4c0 .224-.048.4-.096.4zM376.504 225.272c-.048 0-.08-.184-.08-.408 0-.224.048-.4.088-.4.04 0 .08.184.08.408 0 .224-.048.4-.088.4zM376.472 226.872c-.048 0-.08-.176-.08-.4 0-.224.048-.4.096-.4s.08.184.072.4c-.008.216-.04.408-.088.4zM376.44 228.48c-.048 0-.08-.184-.072-.4.008-.216 0-.4.088-.4s.08.176.08.4c0 .224-.048.4-.096.4zM376.416 230.088c-.048 0-.08-.184-.08-.408 0-.224.048-.4.088-.4.04 0 .08.184.08.408 0 .224-.048.4-.088.4zM376.384 231.688c-.048 0-.08-.176-.08-.4 0-.224.048-.4.096-.4s.08.184.072.4c-.008.216-.04.4-.088.4zM376.352 233.296c-.048 0-.08-.184-.072-.4.008-.216 0-.408.088-.4.088.008.08.176.08.4 0 .224-.048.4-.096.4zM376.328 234.904c-.048 0-.08-.184-.08-.408 0-.224.048-.4.088-.4.04 0 .08.184.08.408 0 .224-.048.4-.088.4zM376.28 236.504c-.048 0-.08-.184-.08-.4 0-.216.048-.4.096-.4s.08.176.072.4c-.008.224-.024.4-.088.4zM376.28 238.112c-.048 0-.08-.184-.072-.408.008-.224.04-.4.088-.4.048 0 .08.184.08.408 0 .224-.096.4-.096.4zM376.232 239.712c-.04 0-.08-.176-.072-.4.008-.224.048-.4.088-.4.04 0 .08.184.08.4 0 .216-.048.4-.096.4zM376.208 241.32c-.048 0-.08-.184-.08-.4 0-.216.048-.4.096-.4s.08.176.072.4c-.008.224-.016.4-.088.4zM376.176 242.92c-.048 0-.08-.176-.072-.4.008-.224.04-.4.088-.4.048 0 .08.184.072.408-.008.224-.04.4-.088.392zM376.144 244.528c-.04 0-.08-.184-.072-.4.008-.216 0-.4.088-.4s.08.176.08.4c0 .224-.048.4-.096.4zM376.12 246.136c-.048 0-.08-.184-.08-.408 0-.224.048-.4.088-.4.04 0 .08.184.08.408 0 .224-.048.4-.088.4zM376.088 247.736c-.048 0-.08-.176-.08-.4 0-.224.048-.4.096-.4s.08.184.072.4c-.008.216-.048.4-.088.4zM376.056 249.344c-.048 0-.08-.184-.08-.408 0-.224.048-.4.096-.4s.08.184.072.408c-.008.224-.04.4-.088.4zM376.024 250.944c-.048 0-.08-.176-.072-.4.008-.224 0-.4.088-.4s.08.184.072.4c-.008.216-.04.4-.088.4zM375.992 252.552c-.048 0-.08-.184-.072-.408.008-.224.04-.4.088-.4.048 0 .08.184.072.408-.008.224-.04.4-.088.4zM375.96 254.152c-.048 0-.08-.184-.072-.4.008-.216 0-.4.088-.4s.08.184.08.4c0 .216-.048.4-.096.4zM375.928 255.76c-.048 0-.08-.184-.072-.408.008-.224 0-.4.088-.4s.08.184.072.408c-.008.224-.04.4-.088.4zM375.896 257.36c-.048 0-.08-.184-.072-.4.008-.216.04-.4.088-.4.048 0 .08.176.072.4-.008.224-.04.4-.088.4zM375.864 258.96c-.048 0-.08-.176-.08-.4 0-.224.048-.4.096-.4s.08.184.072.408c-.008.224-.04.4-.088.392zM375.832 260.568c-.048 0-.08-.184-.08-.408 0-.224.048-.4.096-.392.048.008.08.176.072.4-.008.224-.048.4-.088.4zM375.792 262.168s-.08-.184-.072-.4c.008-.216.048-.4.096-.4s.072.184.072.4c0 .216-.048.4-.096.4zM375.76 263.768c-.048 0-.08-.176-.072-.4.008-.224 0-.4.088-.4s.08.184.08.408c0 .224-.048.4-.096.392zM375.728 265.376c-.048 0-.08-.184-.08-.408 0-.224.048-.4.096-.392.048.008.08.176.072.4-.008.224-.048.4-.088.4zM375.688 266.976c-.048 0-.08-.184-.072-.4.008-.216.048-.4.088-.4.04 0 .08.184.08.4 0 .216-.048.4-.096.4zM375.656 268.576c-.048 0-.08-.176-.08-.4 0-.224.048-.4.096-.4s.08.184.072.4c-.008.216-.048.4-.088.4zM375.616 270.176c-.048 0-.08-.176-.072-.4.008-.224 0-.4.088-.4s.08.184.072.408c-.008.224-.04.4-.088.392zM375.576 271.784c-.048 0-.08-.184-.072-.408.008-.224.048-.4.088-.392.04.008.08.176.08.4 0 .224-.048.4-.096.4zM375.536 273.384c-.048 0-.08-.184-.072-.408.008-.224.048-.392.096-.392s.072.176.072.4c0 .224-.048.4-.096.4zM375.48 274.984c-.048 0-.08-.184-.072-.4.008-.216.048-.4.096-.4s.08.176.072.4c-.008.224-.032.4-.096.4zM375.48 276.584c-.048 0-.08-.184-.072-.4.008-.216.048-.4.096-.4s.08.184.072.4c-.008.216-.096.4-.096.4zM375.416 278.184c-.048 0-.08-.184-.072-.4.008-.216.048-.4.096-.4s.072.184.072.4c0 .216-.032.4-.096.4zM375.376 279.784c-.048 0-.08-.184-.072-.4.008-.216.048-.4.088-.4.04 0 .08.184.072.4-.008.216-.048.4-.088.4zM375.336 281.304c-.048 0-.08-.16-.08-.36 0-.2.048-.36.096-.36s.08.16.072.36c-.008.2-.048.368-.088.36z"/>
            <path fill="#E5BAAB" d="M374.032 97.68a2686.6 2686.6 0 0 0-.528-8.688s-5.008-.312-5.528-5.24c-.52-4.928-.728-16.352-.728-16.352a17.4 17.4 0 0 1 17.488.496l1.248.8.136 5.8-.288 5.216-.216 14.192-11.56 3.824s-.024-.032-.024-.048z"/>
            <path fill="#D78776" d="M373.504 89.088a12.368 12.368 0 0 0 6.456-2.504s-1.328 3.696-6.296 3.712l-.16-1.208z"/>
            <path fill="#263238" d="M383.384 64.504a19.464 19.464 0 0 0-4.552-2.864 6.648 6.648 0 0 0-5.248-.08c-.744.352-1.4.888-2.176 1.192-1.6.632-3.616.16-5.032 1.168a3.424 3.424 0 0 0-.8 4.296 5.088 5.088 0 0 0 3.888 2.448 10.4 10.4 0 0 0 4.688-.68 4 4 0 0 1 2.72-.344c.8.328 1.408 1.24 2.296 1.32.888.08 1.688-.504 2.256 0a1.6 1.6 0 0 1 .36.864c.304 1.704 1.304 5.144 1.6 6.84 1.12.488 1.648-1.016 2.864-1.04.192-3.76 1.816-7.544.864-11.2a3.832 3.832 0 0 0-1.432-2.32 1.904 1.904 0 0 0-2.512.28"/>
            <path fill="#E5BAAB" d="M384.152 73.712c.088-.056 3.304-1.24 3.88 2.744.576 3.984-3.64 3.248-3.664 3.136-.024-.112-.216-5.88-.216-5.88z"/>
            <path fill="#D78776" d="M385.392 78.016s.072.04.2.072c.175.05.363.028.52-.064a1.728 1.728 0 0 0 .568-1.656 2.4 2.4 0 0 0-.336-.968.8.8 0 0 0-.6-.456.368.368 0 0 0-.384.248v.208c0 .008-.096-.056-.088-.224a.48.48 0 0 1 .12-.272.56.56 0 0 1 .368-.16 1 1 0 0 1 .8.52c.221.318.359.687.4 1.072a1.824 1.824 0 0 1-.8 1.872.8.8 0 0 1-.656 0c-.096-.096-.128-.184-.112-.192z"/>
            <path fill="#263238" d="M382.536 61.84c.112 0 .352.6.536 1.408.184.808.248 1.48.136 1.504-.112.024-.36-.608-.544-1.408-.184-.8-.24-1.48-.128-1.504z"/>
            <path fill="#263238" d="M384.28 62.032c.104 0-.072.688-.4 1.44s-.672 1.328-.8 1.28c-.128-.048.08-.696.4-1.448s.704-1.32.8-1.272z"/>
            <path fill="#E5BAAB" d="M374.624 124.88a8.8 8.8 0 0 1-1.416 3.144c-2.264 2.48-21.912-18.864-21.912-18.864a23.472 23.472 0 0 1-.152-4.168c.163-.914.448-1.802.848-2.64.448-.728-.224-1.6-.944-1.328s-2 2.272-2.32 5.008c-.32 2.736-3.2-.664-4.088-1.984-.888-1.32-3.864-5.296-4.48-5.344-.912-.08-1 1.024-.104 2.328.896 1.304 3.464 5.144 3.136 5.392-.656.496-5.264-6.216-5.264-6.216s-.712-1.392-1.56-.928c-1.528.8 3.592 7.672 4.096 8.312.352.44-.152.616-.504.12s-4.456-6.312-5.536-5.6c-1.08.712 3.432 5.6 4.04 6.984.688 1.6-3.68-4.24-4.8-3.584-.416.248-.696.488 1.944 3.616a108.384 108.384 0 0 0 8.48 8.112c5.6 6.632 24.872 28.696 33.896 27.456a6.672 6.672 0 0 0 4.96-3.096 69.816 69.816 0 0 0 6.136-11.816l-14.456-4.904z"/>
        </g>
        <path fill="#E8505B" fill-rule="nonzero" d="M162.28 285.992l-.176-7.344-13.752.248.152 10.736.848.04c3.8.144 19.32.464 21.84-.352 2.816-.904-8.912-3.328-8.912-3.328z"/>
        <path fill="#263238" fill-rule="nonzero" d="M153.424 289.464a4.744 4.744 0 0 0-1.808-2.896 4.616 4.616 0 0 0-3.2-.944l.072 3.84h4.936z"/>
        <path fill="#263238" fill-rule="nonzero" d="M168.016 287.376s4.112 1.112 3.616 1.792c-.496.68-16.2.952-23.128.464v-.304l18.312-.16s.4-1.744 1.2-1.792z"/>
        <path fill="#455A64" fill-rule="nonzero" d="M148.28 289.32h3.416c2.112 0 5.024 0 8.248-.048a361.27 361.27 0 0 0 8.248-.224l2.496-.088h.68c.08-.009.16-.009.24 0h-.232l-.68.056-2.496.144c-2.112.112-5.032.224-8.256.272-3.224.048-6.136 0-8.248 0l-2.504-.064h-.68l-.232-.048z"/>
        <path fill="#455A64" fill-rule="nonzero" d="M166.832 289.384c-.06-.452.049-.91.304-1.288.208-.404.554-.719.976-.888-.3.297-.568.624-.8.976-.207.38-.368.782-.48 1.2zM162.736 287.392c-.04 0 .088-.296.288-.616.2-.32.384-.56.424-.536.04.024-.088.304-.288.616-.2.312-.384.56-.424.536zM161.616 286.824s.128-.232.368-.456.448-.36.472-.328c.024.032-.128.24-.36.456-.232.216-.448.36-.48.328zM160.888 285.536a1.76 1.76 0 0 1 .72-.08c.242-.028.488-.003.72.072-.23.086-.476.116-.72.088-.243.033-.49.006-.72-.08zM160.632 284.664a4 4 0 0 1 .8.048c.267-.008.535.006.8.04-.247.125-.527.17-.8.128a1.384 1.384 0 0 1-.8-.216z"/>
        <path fill="#455A64" fill-rule="nonzero" d="M163.184 286.184s.336 0 .864-.136a5.6 5.6 0 0 0 .904-.248c.172-.058.338-.133.496-.224.152-.096.208-.264.064-.36a1.384 1.384 0 0 0-1.056-.056 1.6 1.6 0 0 0-.744.504c-.172.23-.305.487-.392.76a.504.504 0 0 1 0-.24c.053-.214.149-.415.28-.592a1.6 1.6 0 0 1 2-.512.368.368 0 0 1 .136.352.464.464 0 0 1-.216.28 2.472 2.472 0 0 1-.528.232c-.308.1-.624.175-.944.224a2.4 2.4 0 0 1-.864.016z"/>
        <path fill="#455A64" fill-rule="nonzero" d="M163.416 286.264a3.656 3.656 0 0 0 0-.592 1.448 1.448 0 0 0-.264-.568c-.136-.176-.368-.392-.584-.368-.216.024-.136.376 0 .56.106.189.232.366.376.528.248.272.44.408.424.432a1.408 1.408 0 0 1-.512-.352 2.536 2.536 0 0 1-.424-.528 1.032 1.032 0 0 1-.16-.392.352.352 0 0 1 .272-.408c.306.006.587.17.744.432.135.192.22.415.248.648a.88.88 0 0 1-.12.608zM148.52 285.56s.088-.04.264-.072a4.12 4.12 0 0 1 .76 0c.842.051 1.65.352 2.32.864.67.515 1.17 1.22 1.432 2.024.079.24.132.486.16.736.012.093.012.187 0 .28 0 0-.064-.392-.28-.976a4.288 4.288 0 0 0-3.648-2.808 8.992 8.992 0 0 0-1.008-.048zM149.88 279.808c.083.939.115 1.882.096 2.824.016.945-.016 1.89-.096 2.832a23.752 23.752 0 0 1-.096-2.824 23.2 23.2 0 0 1 .096-2.832zM155.192 288.072c0-.048.904 0 2.008 0s2-.072 2.008 0a8.088 8.088 0 0 1-2.008.192 8.224 8.224 0 0 1-2.008-.192z"/>
        <path fill="#455A64" fill-rule="nonzero" d="M152.496 288.112s.208.088.32.32c.112.232.096.456.048.456s-.096-.184-.192-.384-.208-.36-.176-.392zM151.48 286.864s.176.056.32.2c.144.144.24.28.208.312-.032.032-.176-.056-.32-.192-.144-.136-.264-.288-.208-.32zM150 286.312c0-.04.192-.128.44-.048s.376.272.336.296c-.04.024-.176-.072-.384-.136-.208-.064-.384-.064-.392-.112zM148.96 286.056c0-.04.12-.04.232 0 .112.04.2.112.184.152-.016.04-.128.048-.24 0-.112-.048-.192-.104-.176-.152z"/>
        <path fill="#E5BAAB" fill-rule="nonzero" d="M210.44 80.096s11.728-12.12 12.8-11.584c1.072.536-4.304 5.472-3.592 6.112.712.64 6.4 4.936-2.744 11.752l-6.464-6.28z"/>
        <path fill="#D78776" fill-rule="nonzero" d="M220.536 76.584a2.4 2.4 0 0 1-.184.352c-.184.304-.376.616-.568.944-.192.328-.568.896-.864 1.376a1.944 1.944 0 0 1-.688.712.864.864 0 0 1-1.048-.152.92.92 0 0 1 .064-1.056c.176-.296.352-.552.52-.8.312-.472.608-.92.888-1.36l.616-.912c.069-.114.15-.222.24-.32-.044.128-.106.25-.184.36l-.568.936c-.28.44-.56.904-.864 1.384l-.504.8a.8.8 0 0 0-.08.872c.218.2.536.244.8.112a1.84 1.84 0 0 0 .64-.648l.888-1.36.616-.912a1.6 1.6 0 0 1 .28-.328z"/>
        <path fill="#D78776" fill-rule="nonzero" d="M221.136 77.912c0 .116-.016.232-.048.344-.07.31-.169.613-.296.904-.198.43-.454.83-.76 1.192a2.096 2.096 0 0 1-.648.552.728.728 0 0 1-.912-.08.896.896 0 0 1-.12-.928c.112-.26.26-.502.44-.72.296-.424.544-.8.752-1.168a9.16 9.16 0 0 1 .52-.8c.065-.098.14-.189.224-.272a1.952 1.952 0 0 1-.168.304l-.472.8c-.152.256-.432.76-.728 1.2a3.584 3.584 0 0 0-.416.688.8.8 0 0 0 .088.76c.2.18.498.2.72.048.234-.13.44-.304.608-.512.3-.348.556-.732.76-1.144.177-.379.33-.77.456-1.168z"/>
        <path fill="#E5BAAB" fill-rule="nonzero" d="M214.064 77.592l4.296-.288a.8.8 0 0 1 .24 0c.224.08.264.392.208.632a2.4 2.4 0 0 1-1.496 1.6 7.064 7.064 0 0 1-2.208.376l-2.064.12"/>
        <path fill="#D78776" fill-rule="nonzero" d="M213.08 80.016c.153-.031.308-.05.464-.056l1.264-.104c.622-.03 1.242-.1 1.856-.208a2.888 2.888 0 0 0 1.856-1.152c.2-.312.368-.744.192-1.016-.08-.136-.264-.096-.456-.088l-.544.04-1.872.104-1.272.064c-.154.019-.31.019-.464 0 .153-.031.308-.05.464-.056l1.264-.112 1.872-.152h.544c.096-.008.192-.008.288 0a.408.408 0 0 1 .312.152.8.8 0 0 1 .072.64 2.304 2.304 0 0 1-.256.576 3.056 3.056 0 0 1-1.968 1.208c-.622.103-1.25.161-1.88.176l-1.264.048a2.008 2.008 0 0 1-.472-.064zM221.88 79.064s-.04.088-.104.256c-.086.233-.158.47-.216.712-.083.367-.218.72-.4 1.048a1.6 1.6 0 0 1-.48.496.608.608 0 0 1-.384.088.52.52 0 0 1-.344-.232.848.848 0 0 1-.048-.744c.08-.224.184-.416.264-.616l.464-1.008a7.64 7.64 0 0 1 .456-.912c-.087.33-.205.652-.352.96l-.424 1.024c-.144.376-.456.8-.216 1.208a.336.336 0 0 0 .504.088c.172-.112.32-.26.432-.432.182-.316.322-.655.416-1.008.07-.339.218-.656.432-.928z"/>
        <path fill="#D78776" fill-rule="nonzero" d="M216.416 83.456c-.048 0 .184-.8.24-1.832.056-1.032-.056-1.832 0-1.84.175.602.232 1.232.168 1.856a4.688 4.688 0 0 1-.408 1.816z"/>
        <path fill="#263238" fill-rule="nonzero" d="M160.632 76.056a9.144 9.144 0 0 0 4.352 7.768c.747.382 1.469.813 2.16 1.288a2.704 2.704 0 0 1 1.16 2.12c-.056 1.304-1.384 2.136-2.544 2.728a3.24 3.24 0 1 1-4.664 4.488 5.976 5.976 0 0 1-4.384 5.288 8.328 8.328 0 0 1-6.968-1.424 14.072 14.072 0 0 1-4.432-5.76"/>
        <path fill="#E5BAAB" fill-rule="nonzero" d="M154.68 98.928c-.216-1.232.288-6.4.288-6.4s4.744-.504 5.032-5.208c.288-4.704 0-15.568 0-15.568l-8.64-4.224-9.512 7.2 1.44 23.528 11.392.672z"/>
        <path fill="#D78776" fill-rule="nonzero" d="M154.984 92.496a11.752 11.752 0 0 1-6.232-2.112s1.408 3.456 6.128 3.264l.104-1.152z"/>
        <path fill="#263238" fill-rule="nonzero" d="M158.04 68.264c-4.672-4.848-7.872-3.84-9.704-3.84a14.696 14.696 0 0 0-10.192 5.896c-1.304 1.36-3.2 5.768-3.376 7.32-.1 1.57-.1 3.143 0 4.712 0 1.6-.368 3.264-1.544 4.304-.744.664-1.792 1.048-2.24 1.936a2.496 2.496 0 0 0 1.032 3.016 5.648 5.648 0 0 0 3.36.688 4.8 4.8 0 0 0 3.84 5.056 4.616 4.616 0 0 0 3.376-.888c.79.77 1.626 1.492 2.504 2.16.192-6.853.048-13.704-.432-20.552 3.144-.552 8.8-2.248 9.752-7.28 1.256 2.864 3.16 4.424 5.688 6.6.04-.008 2.576-4.28-2.064-9.128z"/>
        <path fill="#263238" fill-rule="nonzero" d="M145.08 76.248a7.48 7.48 0 0 1 1.928 0 9.992 9.992 0 0 0 4.464-.528 4.152 4.152 0 0 0 1.864-1.512c.366-.562.619-1.19.744-1.848.224-1.144.112-1.888.184-1.888.205.625.243 1.292.112 1.936a5.136 5.136 0 0 1-.72 2.016 4.392 4.392 0 0 1-2.016 1.68 9.104 9.104 0 0 1-4.656.432 9.52 9.52 0 0 1-1.904-.288zM132.792 87.776c.27-.007.538-.045.8-.112a2.08 2.08 0 0 0 1.28-1.528 5.152 5.152 0 0 0-.576-3.048 12 12 0 0 1-.664-1.832 6.232 6.232 0 0 1-.136-2.12 8.672 8.672 0 0 1 1.408-3.792c.612-.91 1.323-1.75 2.12-2.504a23.289 23.289 0 0 1 1.656-1.448c.196-.187.417-.346.656-.472.048.048-.8.8-2.104 2.128a16 16 0 0 0-2.008 2.504 8.648 8.648 0 0 0-1.312 3.632 6.008 6.008 0 0 0 .112 1.976c.166.61.377 1.206.632 1.784a5.28 5.28 0 0 1 .504 3.264 2.216 2.216 0 0 1-1.52 1.6 1.536 1.536 0 0 1-.616 0 .504.504 0 0 1-.232-.032zM166.984 81.048s.152.168.144.56a1.76 1.76 0 0 1-.8 1.384 2.4 2.4 0 0 1-2.36 0 4.96 4.96 0 0 1-1.992-2.08 12.8 12.8 0 0 1-1.648-4.864 6.352 6.352 0 0 1 0-2.128c.072 0 .088.8.32 2.088a14.52 14.52 0 0 0 1.72 4.696 4.8 4.8 0 0 0 1.808 1.944 2.136 2.136 0 0 0 2.032.064c.421-.246.714-.664.8-1.144.016-.312-.056-.512-.024-.52zM159.704 155.064s16 52.056 15.024 68.872c-.976 16.816-12.752 58.552-12.752 58.552l-2.272-127.424z"/>
        <path fill="#263238" fill-rule="nonzero" d="M137.08 146.2c-.352-.096-7.392 10.24-7.624 19.128a24 24 0 0 0 .096 2.608 33.112 33.112 0 0 0 2.216 9.064c5.952 15.016 12.08 32.8 12.184 36.88.28 12.504 2.728 69.984 2.728 69.984l17.28-1.224-.568-68.736-4.208-68.256-22.104.552z"/>
        <path fill="#455A64" fill-rule="nonzero" d="M146.496 145.904c.104 0 .144 1.92.144 5.408 0 3.488-.16 8.536.072 14.76.064 1.56.12 3.2.256 4.888.136 1.688.264 3.464.448 5.28.384 3.648.904 7.528 1.552 11.6s1.384 8.336 2.008 12.8c.624 4.464 1.112 9.064 1.376 13.824.264 4.76.216 9.4.304 13.888.088 4.488.176 8.8.296 12.936.24 8.24.528 15.664.8 21.888l.544 14.76c.056 1.728.096 3.08.128 4 .032.92 0 1.4 0 1.4-.04-1.128-.32-7.936-.8-20.168-.256-6.232-.56-13.648-.8-21.896-.12-4.12-.224-8.448-.296-12.936-.072-4.488 0-9.136-.312-13.88-.312-4.744-.736-9.368-1.4-13.792-.664-4.424-1.352-8.712-2-12.8-.648-4.088-1.16-7.96-1.536-11.608a134.483 134.483 0 0 1-.44-5.288 244.423 244.423 0 0 1-.248-4.888c-.216-6.24 0-11.288 0-14.776v-4a6.264 6.264 0 0 0-.096-1.4z"/>
        <path fill="#455A64" fill-rule="nonzero" d="M146.584 281.368h17.376v2.616h-17.376zM147.672 146.432c-.048 0-.088-.176-.096-.4-.008-.224 0-.4.072-.4s.088.176.096.4c.008.224-.032.4-.072.4zM147.712 148.032c-.04 0-.088-.176-.088-.4 0-.224 0-.4.072-.4s.088.176.088.4c0 .224-.024.4-.072.4zM147.76 149.632c-.04 0-.088-.176-.096-.4-.008-.224 0-.4.072-.4s.088.176.096.4c.008.224-.024.4-.072.4zM147.808 151.232c-.048 0-.088-.176-.096-.4-.008-.224 0-.4.072-.4s.088.176.096.4c.008.224-.024.4-.072.4zM147.856 152.832c-.048 0-.088-.176-.096-.4-.008-.224 0-.4.072-.4s.088.176.096.4c.008.224-.024.4-.072.4zM147.904 154.432c-.048 0-.088-.176-.096-.4-.008-.224 0-.4.072-.4s.088.176.096.392c.008.216-.024.408-.072.408zM147.952 156.032c-.048 0-.088-.176-.096-.4-.008-.224 0-.4.072-.4s.088.176.096.392c.008.216-.032.4-.072.408zM148 157.632c-.048 0-.096-.184-.096-.4 0-.216 0-.4.072-.4s.088.176.096.392c.008.216-.032.4-.072.408zM148.04 159.224c-.04 0-.088-.176-.088-.392 0-.216 0-.4.064-.408.064-.008.096.184.096.4 0 .216-.024.4-.072.4zM148.088 160.824c-.048 0-.088-.176-.096-.392-.008-.216 0-.4.072-.408.072-.008.088.176.096.4.008.224-.024.4-.072.4zM148.136 162.424c-.048 0-.088-.176-.096-.392-.008-.216 0-.408.072-.408s.088.176.096.4c.008.224-.024.4-.072.4zM148.144 164.032c-.048 0-.08-.184-.088-.4-.008-.216 0-.4.088-.408.088-.008.08.184.08.408 0 .224-.032.4-.08.4zM148.168 165.632c-.048 0-.088-.176-.088-.4 0-.224 0-.4.072-.4s.088.176.088.4c0 .224-.024.4-.072.4zM148.2 167.232s-.088-.176-.088-.392c0-.216 0-.408.072-.408s.088.176.088.4c0 .224.008.4-.072.4zM148.28 168.84c-.048 0-.088-.176-.096-.4-.008-.224 0-.4.064-.408.064-.008.096.184.104.4.008.216-.072.4-.072.408zM148.32 170.44c-.04 0-.088-.176-.096-.4-.008-.224 0-.4.064-.4s.088.176.104.392c.016.216-.024.4-.072.408zM148.408 172.04c-.048 0-.088-.176-.104-.4-.016-.224 0-.4.064-.4s.088.168.104.392-.016.4-.064.408zM148.512 173.632c-.048 0-.096-.168-.112-.392s0-.4.056-.408c.056-.008.096.176.112.4.016.224-.008.4-.056.4zM148.632 175.232c-.048 0-.096-.176-.112-.392-.016-.216 0-.4.048-.408.048-.008.096.176.12.392.024.216-.008.4-.056.408zM148.776 176.824c-.048 0-.104-.168-.12-.392s0-.4.048-.4.096.168.112.392 0 .4-.04.4zM148.928 178.416c-.048 0-.096-.168-.12-.384-.024-.216 0-.408 0-.408s.104.168.12.392.048.4 0 .4zM149.08 180.008c-.048 0-.104-.168-.128-.384-.024-.216 0-.408.04-.408s.104.168.128.384c.024.216.032.408-.04.408zM149.296 181.6c-.048 0-.104-.168-.136-.392-.032-.224 0-.4 0-.408 0-.008.104.168.128.392.024.224.056.4.008.408zM149.504 183.184c-.048 0-.104-.168-.136-.384-.032-.216 0-.408 0-.408s.104.16.136.384c.032.224.048.4 0 .408zM149.728 184.76c-.048 0-.112-.168-.144-.384-.032-.216 0-.4 0-.408 0-.008.104.168.136.384.032.216.048.4.008.408zM149.96 186.336c-.04 0-.104-.16-.144-.384-.04-.224 0-.4 0-.4s.112.16.144.376c.032.216.048.4 0 .408zM150.208 187.92c-.04 0-.112-.168-.144-.384-.032-.216 0-.4 0-.408 0-.008.104.168.144.384.04.216.048.4 0 .408zM150.464 189.464c-.04 0-.112-.16-.144-.384-.032-.224 0-.4 0-.408 0-.008.112.168.152.384.04.216.04.408-.008.408zM150.728 191.064c-.04 0-.112-.168-.144-.384-.032-.216 0-.4 0-.408 0-.008.112.168.144.384.032.216.048.408 0 .408zM151 192.664c-.048 0-.112-.168-.152-.384-.04-.216 0-.4 0-.408 0-.008.112.16.152.384.04.224.04.408 0 .408zM151.264 194.216c-.048 0-.112-.16-.144-.376-.032-.216 0-.4 0-.408 0-.008.112.16.152.376.04.216.04.4-.008.408zM151.528 195.792c-.04 0-.112-.168-.144-.384-.032-.216 0-.4 0-.408 0-.008.112.168.144.384.032.216.048.4 0 .408zM151.792 197.36c-.048 0-.112-.16-.152-.376-.04-.216 0-.4 0-.408 0-.008.112.16.144.384.032.224.048.392.008.4zM152.04 198.936c-.048 0-.112-.16-.144-.376-.032-.216 0-.4 0-.408 0-.008.104.16.144.376.04.216.048.4 0 .408zM152.28 200.512c-.04 0-.104-.16-.136-.376-.032-.216 0-.4 0-.408 0-.008.112.16.144.376.032.216.04.4-.008.408zM152.512 202.096c-.048 0-.112-.168-.144-.384-.032-.216 0-.4 0-.408 0-.008.104.168.136.384.032.216.048.4.008.408zM152.72 203.672c-.04 0-.104-.16-.128-.384-.024-.224 0-.4 0-.408 0-.008.112.168.136.384.024.216.04.408-.008.408zM152.92 205.256c-.048 0-.104-.168-.128-.384-.024-.216 0-.4 0-.408 0-.008.104.168.128.392.024.224.048.4 0 .4zM153.08 206.848c-.048 0-.104-.168-.128-.392-.024-.224 0-.4.04-.408.04-.008.096.168.12.392.024.224.032.4-.032.408zM153.264 208.432c-.048 0-.104-.168-.12-.384s0-.4.04-.408c.04-.008.104.168.12.392s.008.4-.04.4zM153.408 210.024c-.048 0-.096-.168-.12-.392-.024-.224 0-.4.048-.4s.104.168.12.392 0 .4-.048.4zM153.536 211.624c-.048 0-.096-.176-.112-.4-.016-.224 0-.4.048-.4s.096.168.112.392-.008.4-.048.408zM153.64 213.216c-.048 0-.096-.176-.104-.392-.008-.216 0-.4.056-.408.056-.008.096.176.104.392.008.216-.008.408-.056.408zM153.728 214.808c-.04 0-.088-.176-.104-.392-.016-.216 0-.4.064-.408.064-.008.096.176.104.392.008.216-.016.4-.064.408zM153.8 216.4s-.088-.176-.096-.392c-.008-.216 0-.4.064-.408.064-.008.096.176.104.4.008.224.008.4-.072.4zM153.88 218c-.04 0-.088-.176-.096-.4-.008-.224 0-.4.072-.4s.088.176.096.392c.008.216-.072.4-.072.408zM153.88 219.592s-.088-.176-.088-.392c0-.216 0-.4.072-.408.072-.008.088.184.096.4.008.216-.016.4-.08.4zM153.92 221.192c-.04 0-.08-.176-.088-.4-.008-.224 0-.4.08-.4s.088.184.088.4c0 .216-.032.4-.08.4zM153.936 222.8c-.048 0-.088-.184-.088-.4 0-.216 0-.4.08-.4s.088.176.088.4c0 .224-.032.4-.08.4zM153.952 224.4c-.048 0-.088-.184-.088-.4 0-.216 0-.4.08-.4s.08.176.08.392c0 .216-.032.408-.072.408zM153.968 226c-.048 0-.088-.184-.088-.4 0-.216 0-.4.08-.4s.08.176.088.392c.008.216-.04.4-.08.408zM153.984 227.6c-.04 0-.08-.184-.088-.4-.008-.216 0-.4.08-.4s.088.176.088.392c0 .216-.032.4-.08.408zM154.016 229.2c-.048 0-.088-.184-.096-.4-.008-.216 0-.4.08-.4s.088.176.088.392c0 .216-.032.4-.072.408zM154.04 230.792c-.048 0-.088-.176-.088-.392 0-.216 0-.4.072-.408.072-.008.088.184.096.4.008.216-.032.4-.08.4zM154.072 232.392c-.048 0-.088-.176-.088-.392 0-.216 0-.4.072-.408.072-.008.088.184.088.4 0 .216-.024.4-.072.4zM154.104 233.992s-.08-.176-.088-.392c-.008-.216 0-.4.072-.408.072-.008.088.184.096.4.008.216-.032.4-.08.4zM154.144 235.592c-.048 0-.088-.176-.088-.392 0-.216 0-.408.072-.408s.088.176.088.4c0 .224-.024.4-.072.4zM154.184 237.192c-.048 0-.088-.176-.096-.392-.008-.216 0-.408.08-.408s.088.176.088.4c0 .224-.024.4-.072.4zM154.232 238.792c-.048 0-.088-.176-.096-.4-.008-.224 0-.4.072-.4s.088.176.096.4c.008.224-.032.4-.072.4zM154.272 240.392c-.048 0-.088-.176-.096-.4-.008-.224 0-.4.072-.4s.088.176.096.4c.008.224-.024.4-.072.4zM154.32 241.992c-.048 0-.088-.176-.096-.4-.008-.224 0-.4.072-.4s.088.176.096.4c.008.224-.024.4-.072.4zM154.368 243.592c-.04 0-.088-.176-.096-.4-.008-.224 0-.4.072-.4s.088.176.096.4c.008.224-.024.4-.072.4zM154.424 245.192c-.048 0-.088-.176-.096-.4-.008-.224 0-.4.072-.4s.088.176.096.4c.008.224-.024.4-.072.4zM154.48 246.792c-.048 0-.096-.176-.104-.4-.008-.224 0-.4.072-.4s.088.176.096.392c.008.216-.024.408-.064.408zM154.528 248.392c-.04 0-.088-.176-.096-.4-.008-.224 0-.4.072-.4s.088.176.096.392c.008.216-.024.4-.072.408zM154.592 249.984c-.048 0-.096-.176-.104-.392-.008-.216 0-.4.072-.4s.088.176.096.392c.008.216-.024.4-.064.4zM154.68 251.584c-.048 0-.088-.176-.096-.392-.008-.216 0-.4.064-.408.064-.008.088.176.096.4.008.224-.064.4-.064.4zM154.68 253.184c-.048 0-.088-.176-.096-.392-.008-.216 0-.408.064-.408s.096.176.104.4c.008.224 0 .4-.072.4zM154.768 254.784c-.048 0-.096-.176-.104-.4-.008-.224 0-.4.072-.4s.088.176.096.4c.008.224-.024.4-.064.4zM154.824 256.384c-.04 0-.088-.176-.096-.4-.008-.224 0-.4.072-.4s.088.176.096.4c.008.224-.024.4-.072.4zM154.888 257.984c-.048 0-.088-.176-.096-.4-.008-.224 0-.4.064-.4s.096.176.104.392c.008.216-.024.408-.072.408zM154.952 259.584c-.048 0-.088-.176-.096-.4-.008-.224 0-.4.064-.4s.088.176.096.392c.008.216-.016.4-.064.408zM155.016 261.176c-.048 0-.088-.168-.096-.392-.008-.224 0-.4.064-.4s.088.168.096.392c.008.224-.016.4-.064.4zM155.08 262.776c-.048 0-.088-.176-.104-.392-.016-.216 0-.4.072-.408.072-.008.088.176.096.4.008.224-.016.4-.064.4zM155.144 264.376c-.048 0-.096-.176-.104-.392-.008-.216 0-.408.072-.408s.088.176.096.4c.008.224-.016.4-.064.4zM155.208 265.976c-.048 0-.096-.176-.104-.4-.008-.224 0-.4.072-.4s.088.176.096.4c.008.224-.024.4-.064.4zM155.272 267.576c-.048 0-.096-.176-.104-.4-.008-.224 0-.4.072-.4s.088.176.096.392c.008.216-.024.408-.064.408zM155.336 269.176c-.048 0-.096-.176-.104-.4-.008-.224 0-.4.072-.4s.088.176.096.392c.008.216-.024.4-.064.408zM155.392 270.776c-.04 0-.088-.176-.096-.4-.008-.224 0-.4.064-.4s.096.176.104.392c.008.216.016.4-.072.408zM155.48 272.368c-.048 0-.088-.176-.096-.392-.008-.216 0-.4.064-.408.064-.008.096.176.104.4a.981.981 0 0 1-.072.4zM155.52 273.968c-.048 0-.096-.176-.104-.392-.008-.216 0-.4.072-.408.072-.008.088.176.096.4.008.224-.024.4-.064.4zM155.576 275.568c-.048 0-.088-.176-.096-.392-.008-.216 0-.408.064-.408s.096.176.104.4c.008.224-.024.4-.072.4zM155.64 277.168c-.048 0-.096-.176-.104-.4-.008-.224 0-.4.072-.4s.088.176.096.4c.008.224-.024.4-.064.4zM155.696 278.768c-.048 0-.096-.176-.104-.4-.008-.224 0-.4.072-.4s.088.176.096.4c.008.224-.024.4-.064.4zM155.752 280.376c-.048 0-.096-.184-.096-.4 0-.216 0-.408.064-.408s.088.176.096.4c.008.224-.024.4-.064.408z"/>
        <path fill="#455A64" fill-rule="nonzero" d="M155.8 281.976s-.088-.176-.096-.4c-.008-.224 0-.4.072-.4s.088.176.096.392c.008.216-.024.408-.072.408zM155.84 283.136c-.048 0-.088-.08-.088-.176 0-.096 0-.184.08-.184s.08.08.088.176c.008.096-.032.184-.08.184zM160.408 163.928a.848.848 0 0 1-.736.04 1.44 1.44 0 0 1-.704-.536 2.576 2.576 0 0 1-.376-1.112c-.136-1.712-.256-4.072-.4-6.688-.144-2.616-.248-4.864-.344-6.688l-.08-2.032v-.552a.744.744 0 0 1 0-.192.6.6 0 0 1 0 .192c0 .176 0 .352.048.552.04.576.088 1.248.136 2.024.104 1.824.24 4.136.392 6.688.152 2.552.256 4.856.352 6.68.024.38.14.747.336 1.072.155.24.382.424.648.528.233.089.49.097.728.024zM131.632 176.216a2.64 2.64 0 0 0 .632-.184c.534-.282.95-.744 1.176-1.304.283-.85.379-1.75.28-2.64a26.688 26.688 0 0 0-.328-3.296 28.184 28.184 0 0 0-1.536-5.68l.064.04-1.88.312-.52.072h-.176a.528.528 0 0 1 .176-.048l.504-.112 1.88-.36h.048v.048a26.16 26.16 0 0 1 1.92 9.008 6.184 6.184 0 0 1-.336 2.696 2.504 2.504 0 0 1-1.256 1.312 1.336 1.336 0 0 1-.648.136z"/>
        <path fill="#455A64" fill-rule="nonzero" d="M132.52 165.512c-.489.2-.999.345-1.52.432a7.88 7.88 0 0 1-1.6.264 7.264 7.264 0 0 1 1.528-.432 8.736 8.736 0 0 1 1.592-.264zM219.168 86.704l-8.96-7.336c-24.352 21.968-55.752 19.472-55.752 19.472v.056c-1.408-.232-8.8-1.416-11.248-1.464-1.912 0-6.336-.384-9.464 2.568-.081.07-.159.145-.232.224-2.832 2.768-31.2 30.704-28.176 37.6 3.2 7.288 30.112 23.112 30.112 23.112l6.528-11.856s-2.032-1.328-4.8-3.2l22-.568.968-16.472s3.76-4.2 3.76-7.2c0-2.096-1.16-5.6-2.648-9.152 34.688-2.88 57.912-25.784 57.912-25.784zm-97.504 47.2c.256-.864 5.896-7.032 10.984-12.472 1.76 10.76 4.152 23.16 4.384 24.384-6.12-4.152-15.696-10.84-15.368-11.92v.008z"/>
        <path fill="#263238" fill-rule="nonzero" d="M131.264 122.904c.24-.357.507-.694.8-1.008a93.439 93.439 0 0 1 2.216-2.608c.952-1.088 2.088-2.4 3.304-3.848a82.377 82.377 0 0 0 1.864-2.336 15.264 15.264 0 0 0 1.736-2.664 13.392 13.392 0 0 0 1.6-5.856 6.528 6.528 0 0 0-1.664-4.536 5.256 5.256 0 0 0-2.872-1.6 11.28 11.28 0 0 0-1.232-.096s.104 0 .32-.072c.31-.04.625-.04.936 0a5.32 5.32 0 0 1 3.064 1.56 6.832 6.832 0 0 1 1.832 4.744 13.44 13.44 0 0 1-1.6 6.048 15.2 15.2 0 0 1-1.776 2.72c-.64.8-1.28 1.6-1.896 2.336a122.44 122.44 0 0 1-3.384 3.792L132.2 122c-.287.326-.6.629-.936.904zM122.336 133.904c-.87.475-1.801.828-2.768 1.048a10.4 10.4 0 0 1-2.888.648c.87-.475 1.801-.828 2.768-1.048a10.4 10.4 0 0 1 2.888-.648z"/>
        <path fill="#263238" fill-rule="nonzero" d="M121.976 133.8c.064.104-.888.696-1.8 1.696s-1.44 1.984-1.552 1.928a5.424 5.424 0 0 1 3.352-3.624zM162.28 114.824a7.704 7.704 0 0 1-.928-1.656 40.48 40.48 0 0 1-1.744-4.224 40 40 0 0 1-1.28-4.384 7.272 7.272 0 0 1-.312-1.864c.254.577.453 1.177.592 1.792.336 1.112.8 2.648 1.392 4.32.592 1.672 1.184 3.2 1.6 4.24.282.57.51 1.164.68 1.776zM153.824 122.488a4.928 4.928 0 0 1-1.048 1.6 10.696 10.696 0 0 1-8.4 3.632 4.968 4.968 0 0 1-1.904-.352c0-.072.736.072 1.912.056a11.568 11.568 0 0 0 8.168-3.536c.816-.824 1.208-1.44 1.272-1.4z"/>
        <path fill="#E5BAAB" fill-rule="nonzero" d="M148.28 162.024s-5.528 1.2-6.264.592c-.736-.608 1.056-1.264 1.056-1.264s-1.6.192-1.6-.384c0-.576.576-.984.576-.984l6.232 2.04z"/>
        <path fill="#E5BAAB" fill-rule="nonzero" d="M140.784 151.296s7.768 3.504 7.864 3.776c.096.272.336 5.808-.4 6.952-.736 1.144-10.928-4.44-10.928-4.44l3.464-6.288z"/>
        <path fill="#D78776" fill-rule="nonzero" d="M146.528 160.728c-.13.021-.262.021-.392 0l-1.056-.136a22.288 22.288 0 0 1-3.44-.736 10.4 10.4 0 0 1-3.2-1.528l-.88-.608c-.208-.144-.32-.224-.312-.24.12.054.235.118.344.192l.912.552c.97.65 2.032 1.146 3.152 1.472 1.12.331 2.258.598 3.408.8l1.048.184c.14.004.279.02.416.048zM146.496 160.864c-.569.24-1.17.393-1.784.456a6.776 6.776 0 0 1-1.84.096c0-.048.8-.112 1.816-.264 1.016-.152 1.792-.328 1.808-.288z"/>
    </g>
</svg>