<svg xmlns="http://www.w3.org/2000/svg" viewBox="-87.12679290771484 0 694.1068725585938 512" data-svgdocument="" id="_2di-DRmeDoMA4lTOmniWd" class="fl-svgdocument" overflow="hidden" style="overflow: visible;"><rect fill="#fff" x="0" y="0" width="100%" height="100%"></rect><defs id="_kUKYqUbavoIVScfN5ZMPl" transform="matrix(1.7248930931091309, 0, 0, 1.7248930931091309, -173.80857849121094, -12.951706886291504)"><linearGradient id="o_f1g2ib6hf_3751" x1="0" y1="0.5" x2="1" y2="0.5"><stop id="_0vL9j3uBHszkYbuKwuGyl" offset="0%" stop-color="rgb(116, 209, 76)" stop-opacity="0.54"></stop><stop id="_dcBx2dYlTFeyZe4q8NHMs" offset="100%" stop-color="rgb(116, 209, 76)" stop-opacity="0.54"></stop></linearGradient><linearGradient id="o_f1g2ib6hf_3752" x1="0" y1="0.5" x2="1" y2="0.5"><stop id="_-hFu48ahonb-zjcsq32pY" offset="0%" stop-color="rgb(97, 199, 140)" stop-opacity="0.54"></stop><stop id="_LYe0wNvW1dV2rkf8SXDbW" offset="100%" stop-color="rgb(97, 199, 140)" stop-opacity="0.54"></stop></linearGradient><linearGradient id="o_f1g2ib6hf_3753" x1="0" y1="0.5" x2="1" y2="0.5"><stop id="_dUlq_yZY77ua8IA9h7gZm" offset="0%" stop-color="rgb(51, 181, 204)" stop-opacity="0.53"></stop><stop id="_RlHhXWX8M4aKm2JFNKsJ8" offset="100%" stop-color="rgb(51, 181, 204)" stop-opacity="0.53"></stop></linearGradient><linearGradient id="o_f1g2ib6hf_3754" x1="0" y1="0.5" x2="1" y2="0.5"><stop id="_EvjGV52iHX-f8-WdfZ489" offset="0%" stop-color="rgb(90, 204, 194)" stop-opacity="0.53"></stop><stop id="_Lmpl-hNvOMPymZsP-n9L4" offset="100%" stop-color="rgb(90, 204, 194)" stop-opacity="0.53"></stop></linearGradient></defs><g id="_62xLwANduGTY0AnIuSX2r" transform="matrix(1, 0, 0, 1, -1.9845731258392334, 0)"><path id="_Et9Jd8x5GnV205iHKGYJy" fill-rule="evenodd" clip-rule="evenodd" d="M73.232 28.96c-5.631 0-10.194 4.567-10.194 10.197   c0 8.74-4.368 13.108-13.11 13.108c-8.737 0-13.111-4.369-13.111-13.108c0-5.63-4.563-10.197-10.194-10.197   s-10.194 4.567-10.194 10.197c0 5.631 4.563 10.198 10.194 10.198c8.742 0 13.111 4.369 13.111 13.111   c0 5.631 4.563 10.194 10.195 10.194c5.63 0 10.2-4.563 10.2-10.194c0-8.742 4.368-13.111 13.104-13.111   c5.637 0 10.2-4.567 10.2-10.198C83.433 33.527 78.869 28.96 73.232 28.96z" fill="url(#o_f1g2ib6hf_3751)" transform="matrix(-1.9694325923919678, 0.034314949065446854, -0.034314949065446854, -1.9694325923919678, 389.5705871582031, 316.0334777832031)"></path><path id="_TnvFaCpgbUGY0RxVYO-a4" fill-rule="evenodd" clip-rule="evenodd" d="M73.232 28.96c-5.631 0-10.194 4.567-10.194 10.197   c0 8.74-4.368 13.108-13.11 13.108c-8.737 0-13.111-4.369-13.111-13.108c0-5.63-4.563-10.197-10.194-10.197   s-10.194 4.567-10.194 10.197c0 5.631 4.563 10.198 10.194 10.198c8.742 0 13.111 4.369 13.111 13.111   c0 5.631 4.563 10.194 10.195 10.194c5.63 0 10.2-4.563 10.2-10.194c0-8.742 4.368-13.111 13.104-13.111   c5.637 0 10.2-4.567 10.2-10.198C83.433 33.527 78.869 28.96 73.232 28.96z" fill="url(#o_f1g2ib6hf_3752)" transform="matrix(1.9697389602661133, 0, 0, 1.9697389602661133, 190.248046875, 72.70922088623047)"></path><path id="_iTYV7qm-8bzYSiCWJ8dMw" fill-rule="evenodd" clip-rule="evenodd" d="M73.232 28.96c-5.631 0-10.194 4.567-10.194 10.197   c0 8.74-4.368 13.108-13.11 13.108c-8.737 0-13.111-4.369-13.111-13.108c0-5.63-4.563-10.197-10.194-10.197   s-10.194 4.567-10.194 10.197c0 5.631 4.563 10.198 10.194 10.198c8.742 0 13.111 4.369 13.111 13.111   c0 5.631 4.563 10.194 10.195 10.194c5.63 0 10.2-4.563 10.2-10.194c0-8.742 4.368-13.111 13.104-13.111   c5.637 0 10.2-4.567 10.2-10.198C83.433 33.527 78.869 28.96 73.232 28.96z" fill="url(#o_f1g2ib6hf_3753)" transform="matrix(0.06878308206796646, 1.9685134887695312, -1.9685134887695312, 0.06878308206796646, 312.8594055175781, 2.747023105621338)"></path><path id="_5nDZzyVJrxnzkwt5atHt8" fill-rule="evenodd" clip-rule="evenodd" d="M73.232 28.96c-5.631 0-10.194 4.567-10.194 10.197   c0 8.74-4.368 13.108-13.11 13.108c-8.737 0-13.111-4.369-13.111-13.108c0-5.63-4.563-10.197-10.194-10.197   s-10.194 4.567-10.194 10.197c0 5.631 4.563 10.198 10.194 10.198c8.742 0 13.111 4.369 13.111 13.111   c0 5.631 4.563 10.194 10.195 10.194c5.63 0 10.2-4.563 10.2-10.194c0-8.742 4.368-13.111 13.104-13.111   c5.637 0 10.2-4.567 10.2-10.198C83.433 33.527 78.869 28.96 73.232 28.96z" fill="url(#o_f1g2ib6hf_3754)" transform="matrix(0, 1.9697389602661133, -1.9697389602661133, 0, 319.3802185058594, 96.96078491210938)"></path></g><path id="_AYvwbDQQ_P5-AJqsfVBLp" fill="#3a3a3a" transform="matrix(1.2511166334152222, 0, 0, 1.2511166334152222, 259.0398254394531, 367.2862243652344)" text="Guatecompras" text-anchor="middle" font-size="100" letter-spacing="0" side="left" offset="0.5" dx="0" dy="0" space="preserve" href="" font-family="Open Sans Condensed" font-scale="contain" x="0" y="0" font-weight="700" data-fl-textpath="" d="M-252.9061328125-27.88L-252.9061328125-39.6L-231.0761328125-39.6L-231.0761328125-2.98Q-240.3561328125 0.98 -250.8061328125 0.98L-250.8061328125 0.98Q-263.2561328125 0.98 -269.9661328125-8.5Q-276.6861328125-17.97 -276.6861328125-35.79L-276.6861328125-35.79Q-276.6861328125-52.98 -268.9961328125-62.7Q-261.3061328125-72.41 -247.4861328125-72.41L-247.4861328125-72.41Q-238.9361328125-72.41 -231.1761328125-68.02L-231.1761328125-68.02L-235.3761328125-57.18Q-241.4261328125-60.69 -246.70613281250002-60.69L-246.70613281250002-60.69Q-254.2761328125-60.69 -258.6961328125-53.93Q-263.1061328125-47.17 -263.1061328125-35.5L-263.1061328125-35.5Q-263.1061328125-23.49 -259.9161328125-17.09Q-256.7161328125-10.69 -250.6061328125-10.69L-250.6061328125-10.69Q-247.3861328125-10.69 -244.0661328125-11.52L-244.0661328125-11.52L-244.0661328125-27.88L-252.9061328125-27.88ZM-181.1792578125 0L-191.5792578125 0L-193.1892578125-6.98L-193.8692578125-6.98Q-195.6792578125-3.27 -199.0192578125-1.15Q-202.3692578125 0.98 -206.6692578125 0.98L-206.6692578125 0.98Q-213.9892578125 0.98 -217.7492578125-4Q-221.5092578125-8.98 -221.5092578125-18.9L-221.5092578125-18.9L-221.5092578125-54.39L-208.3692578125-54.39L-208.3692578125-22.02Q-208.3692578125-16.06 -206.9592578125-13.04Q-205.5392578125-10.01 -202.3692578125-10.01L-202.3692578125-10.01Q-198.1692578125-10.01 -196.2392578125-14.21Q-194.3092578125-18.41 -194.3092578125-28.32L-194.3092578125-28.32L-194.3092578125-54.39L-181.1792578125-54.39L-181.1792578125 0ZM-134.1056640625 0L-143.6256640625 0L-146.2156640625-7.42L-146.5056640625-7.42Q-149.38566406249998-2.64 -152.4656640625-0.83Q-155.5456640625 0.98 -160.2256640625 0.98L-160.2256640625 0.98Q-166.2356640625 0.98 -169.6756640625-3.52Q-173.1156640625-8.01 -173.1156640625-16.02L-173.1156640625-16.02Q-173.1156640625-24.61 -168.4056640625-28.78Q-163.6956640625-32.96 -154.3256640625-33.4L-154.3256640625-33.4L-147.0956640625-33.69L-147.0956640625-37.6Q-147.0956640625-45.21 -153.6856640625-45.21L-153.6856640625-45.21Q-158.5656640625-45.21 -164.9156640625-41.41L-164.9156640625-41.41L-169.4056640625-50.39Q-161.3056640625-55.52 -151.7856640625-55.52L-151.7856640625-55.52Q-143.13566406249998-55.52 -138.6256640625-50.56Q-134.1056640625-45.61 -134.1056640625-36.52L-134.1056640625-36.52L-134.1056640625 0ZM-154.9056640625-9.18L-154.9056640625-9.18Q-151.3456640625-9.18 -149.2156640625-12.38Q-147.0956640625-15.58 -147.0956640625-20.9L-147.0956640625-20.9L-147.0956640625-25.49L-151.0956640625-25.29Q-155.5456640625-25.05 -157.6156640625-22.75Q-159.6956640625-20.46 -159.6956640625-15.92L-159.6956640625-15.92Q-159.6956640625-9.18 -154.9056640625-9.18ZM-104.7159765625-10.01L-104.7159765625-10.01Q-101.9759765625-10.01 -98.8059765625-11.38L-98.8059765625-11.38L-98.8059765625-1.22Q-101.9759765625 0.98 -108.3259765625 0.98L-108.3259765625 0.98Q-115.4059765625 0.98 -118.8259765625-3.25Q-122.2459765625-7.47 -122.2459765625-15.92L-122.2459765625-15.92L-122.2459765625-44.09L-127.5159765625-44.09L-127.5159765625-49.9L-120.7259765625-54.59L-117.4059765625-66.11L-109.1059765625-66.11L-109.1059765625-54.39L-99.2459765625-54.39L-99.2459765625-44.09L-109.1059765625-44.09L-109.1059765625-15.48Q-109.1059765625-10.01 -104.7159765625-10.01ZM-71.1141015625 0.98L-71.1141015625 0.98Q-81.3241015625 0.98 -87.2041015625-6.27Q-93.0941015625-13.53 -93.0941015625-26.81L-93.0941015625-26.81Q-93.0941015625-40.28 -87.7641015625-47.85Q-82.4441015625-55.42 -72.9241015625-55.42L-72.9241015625-55.42Q-64.0341015625-55.42 -58.9141015625-48.95Q-53.7841015625-42.48 -53.7841015625-30.81L-53.7841015625-30.81L-53.7841015625-23.88L-79.9041015625-23.88Q-79.7641015625-16.6 -76.9241015625-13.06Q-74.0941015625-9.52 -69.1141015625-9.52L-69.1141015625-9.52Q-62.7641015625-9.52 -56.1241015625-13.48L-56.1241015625-13.48L-56.1241015625-2.78Q-62.3741015625 0.98 -71.1141015625 0.98ZM-73.0241015625-45.41L-73.0241015625-45.41Q-75.8041015625-45.41 -77.6141015625-42.46Q-79.41410156250001-39.5 -79.7141015625-33.3L-79.7141015625-33.3L-66.5241015625-33.3Q-66.6241015625-39.26 -68.3341015625-42.33Q-70.0441015625-45.41 -73.0241015625-45.41ZM-27.2180078125 0.98L-27.2180078125 0.98Q-36.938007812500004 0.98 -42.0180078125-6.1Q-47.0980078125-13.18 -47.0980078125-26.9L-47.0980078125-26.9Q-47.0980078125-41.26 -42.2880078125-48.34Q-37.478007812499996-55.42 -27.4180078125-55.42L-27.4180078125-55.42Q-24.3880078125-55.42 -21.0680078125-54.54Q-17.7480078125-53.66 -15.108007812499999-52L-15.108007812499999-52L-18.8280078125-41.89Q-22.8780078125-44.29 -25.9980078125-44.29L-25.9980078125-44.29Q-30.1480078125-44.29 -31.9780078125-39.97Q-33.8180078125-35.64 -33.8180078125-27L-33.8180078125-27Q-33.8180078125-18.55 -32.0080078125-14.38Q-30.1980078125-10.21 -26.0980078125-10.21L-26.0980078125-10.21Q-21.2180078125-10.21 -15.898007812499998-13.62L-15.898007812499998-13.62L-15.898007812499998-2.2Q-21.0180078125 0.98 -27.2180078125 0.98ZM 32.2013671875-27.29L 32.2013671875-27.29Q 32.2013671875-13.92  26.5413671875-6.47Q 20.8713671875 0.98  11.0113671875 0.98L 11.0113671875 0.98Q 4.761367187499999 0.98 -0.028632812499999716-2.44Q-4.808632812500001-5.86 -7.3986328125-12.28Q-9.9886328125-18.7 -9.9886328125-27.29L-9.9886328125-27.29Q-9.9886328125-40.53 -4.3686328125-47.97Q 1.2413671874999999-55.42  11.2013671875-55.42L 11.2013671875-55.42Q 20.8213671875-55.42  26.5113671875-47.83Q 32.2013671875-40.23  32.2013671875-27.29ZM 3.2913671875000006-27.29L 3.2913671875000006-27.29Q 3.2913671875000006-18.8  5.1513671875-14.45Q 7.011367187499999-10.11  11.1113671875-10.11L 11.1113671875-10.11Q 18.921367187500003-10.11  18.921367187500003-27.29L 18.921367187500003-27.29Q 18.921367187500003-35.84  17.0413671875-40.06Q 15.161367187500002-44.29  11.1113671875-44.29L 11.1113671875-44.29Q 7.011367187499999-44.29  5.1513671875-40.06Q 3.2913671875000006-35.84  3.2913671875000006-27.29ZM 108.4254296875 0L 95.33542968750001 0L 95.33542968750001-32.42Q 95.33542968750001-44.38  89.4254296875-44.38L 89.4254296875-44.38Q 85.1354296875-44.38  83.27542968750001-40.11Q 81.4254296875-35.84  81.4254296875-26.42L 81.4254296875-26.42L 81.4254296875 0L 68.33542968750001 0L 68.33542968750001-32.42Q 68.33542968750001-44.38  62.325429687500005-44.38L 62.325429687500005-44.38Q 58.1254296875-44.38  56.2254296875-40.14Q 54.325429687500005-35.89  54.325429687500005-26.12L 54.325429687500005-26.12L 54.325429687500005 0L 41.335429687499996 0L 41.335429687499996-54.39L 51.6354296875-54.39L 53.195429687499995-47.41L 54.0254296875-47.41Q 55.9854296875-51.56  59.3754296875-53.49Q 62.7654296875-55.42  66.6254296875-55.42L 66.6254296875-55.42Q 76.58542968750001-55.42  79.9054296875-46L 79.9054296875-46L 80.3954296875-46Q 84.54542968749999-55.42  93.7254296875-55.42L 93.7254296875-55.42Q 100.9554296875-55.42  104.6854296875-50.34Q 108.4254296875-45.26  108.4254296875-35.5L 108.4254296875-35.5L 108.4254296875 0ZM 143.1933203125 0.98L 143.1933203125 0.98Q 139.6733203125 0.98  136.9633203125-0.61Q 134.2533203125-2.2  131.9133203125-6.2L 131.9133203125-6.2L 131.2233203125-6.2Q 132.0033203125 0.44  132.0033203125 1.81L 132.0033203125 1.81L 132.0033203125 24.02L 118.9233203125 24.02L 118.9233203125-54.39L 128.9833203125-54.39L 131.2233203125-47.31L 131.8133203125-47.31Q 135.8633203125-55.42  143.5833203125-55.42L 143.5833203125-55.42Q 151.0033203125-55.42  155.2033203125-48.07Q 159.4033203125-40.72  159.4033203125-27.29L 159.4033203125-27.29Q 159.4033203125-14.06  155.0533203125-6.54Q 150.7033203125 0.98  143.1933203125 0.98ZM 139.1833203125-44.38L 139.1833203125-44.38Q 135.3733203125-44.38  133.6933203125-40.84Q 132.0033203125-37.3  131.9133203125-29.1L 131.9133203125-29.1L 131.9133203125-27.39Q 131.9133203125-18.41  133.6133203125-14.31Q 135.32332031250002-10.21  139.2833203125-10.21L 139.2833203125-10.21Q 146.1133203125-10.21  146.1133203125-27.49L 146.1133203125-27.49Q 146.1133203125-35.99  144.4333203125-40.19Q 142.7533203125-44.38  139.1833203125-44.38ZM 191.7226953125-55.42L 191.7226953125-55.42Q 194.1126953125-55.42  196.4126953125-54.69L 196.4126953125-54.69L 194.8926953125-42.09Q 193.5326953125-42.58  191.3326953125-42.58L 191.3326953125-42.58Q 186.59269531249998-42.58  184.0526953125-38.84Q 181.5226953125-35.11  181.5226953125-27.98L 181.5226953125-27.98L 181.5226953125 0L 168.5326953125 0L 168.5326953125-54.39L 179.2226953125-54.39L 180.6926953125-45.9L 181.1326953125-45.9Q 183.2726953125-51.03  185.8126953125-53.22Q 188.3526953125-55.42  191.7226953125-55.42ZM 238.4041015625 0L 228.8841015625 0L 226.2941015625-7.42L 226.0041015625-7.42Q 223.12410156250002-2.64  220.0441015625-0.83Q 216.9641015625 0.98  212.2841015625 0.98L 212.2841015625 0.98Q 206.2741015625 0.98  202.8341015625-3.52Q 199.3941015625-8.01  199.3941015625-16.02L 199.3941015625-16.02Q 199.3941015625-24.61  204.1041015625-28.78Q 208.8141015625-32.96  218.1841015625-33.4L 218.1841015625-33.4L 225.4141015625-33.69L 225.4141015625-37.6Q 225.4141015625-45.21  218.8241015625-45.21L 218.8241015625-45.21Q 213.9441015625-45.21  207.5941015625-41.41L 207.5941015625-41.41L 203.1041015625-50.39Q 211.2041015625-55.52  220.7241015625-55.52L 220.7241015625-55.52Q 229.37410156250002-55.52  233.8841015625-50.56Q 238.4041015625-45.61  238.4041015625-36.52L 238.4041015625-36.52L 238.4041015625 0ZM 217.6041015625-9.18L 217.6041015625-9.18Q 221.1641015625-9.18  223.2941015625-12.38Q 225.4141015625-15.58  225.4141015625-20.9L 225.4141015625-20.9L 225.4141015625-25.49L 221.4141015625-25.29Q 216.9641015625-25.05  214.8941015625-22.75Q 212.8141015625-20.46  212.8141015625-15.92L 212.8141015625-15.92Q 212.8141015625-9.18  217.6041015625-9.18ZM 278.1037890625-15.92L 278.1037890625-15.92Q 278.1037890625-7.96  273.4337890625-3.49Q 268.7737890625 0.98  259.6937890625 0.98L 259.6937890625 0.98Q 251.6337890625 0.98  246.3637890625-2.2L 246.3637890625-2.2L 246.3637890625-13.48Q 249.0437890625-11.62  252.6337890625-10.4Q 256.2237890625-9.18  258.9637890625-9.18L 258.9637890625-9.18Q 261.9837890625-9.18  263.5737890625-10.67Q 265.1637890625-12.16  265.1637890625-14.6L 265.1637890625-14.6Q 265.1637890625-17.09  263.5037890625-18.95Q 261.8437890625-20.8  257.3937890625-23.49L 257.3937890625-23.49Q 251.4937890625-27  248.9237890625-30.98Q 246.3637890625-34.96  246.3637890625-40.38L 246.3637890625-40.38Q 246.3637890625-47.31  251.1237890625-51.37Q 255.8837890625-55.42  264.1837890625-55.42L 264.1837890625-55.42Q 271.4137890625-55.42  277.8037890625-51.61L 277.8037890625-51.61L 273.5637890625-42.29Q 268.3337890625-45.12  264.3837890625-45.12L 264.3837890625-45.12Q 261.8937890625-45.12  260.6437890625-43.8Q 259.4037890625-42.48  259.4037890625-40.58L 259.4037890625-40.58Q 259.4037890625-38.38  260.9337890625-36.67Q 262.4737890625-34.96  266.6737890625-32.42L 266.6737890625-32.42Q 271.7537890625-29.35  273.8037890625-27.2Q 275.8537890625-25.05  276.97378906250003-22.31Q 278.1037890625-19.58  278.1037890625-15.92Z"></path><path id="_At8XwUqocHmbDl2smRqyY" fill="#3a3a3a" transform="matrix(1.2511166334152222, 0, 0, 1.2511166334152222, 259.58782958984375, 490.5724792480469)" text="Toolkit" text-anchor="middle" font-size="100" letter-spacing="0" side="left" offset="0.5" dx="0" dy="0" space="preserve" href="" font-family="Open Sans Condensed" font-scale="contain" x="0" y="0" font-weight="700" data-fl-textpath="" d="M-104.9098828125-59.72L-104.9098828125 0L-118.1398828125 0L-118.1398828125-59.72L-131.8098828125-59.72L-131.8098828125-71.39L-91.2398828125-71.39L-91.2398828125-59.72L-104.9098828125-59.72ZM-47.5349609375-27.29L-47.5349609375-27.29Q-47.5349609375-13.92 -53.1949609375-6.47Q-58.8649609375 0.98 -68.7249609375 0.98L-68.7249609375 0.98Q-74.9749609375 0.98 -79.7649609375-2.44Q-84.54496093750001-5.86 -87.1349609375-12.28Q-89.7249609375-18.7 -89.7249609375-27.29L-89.7249609375-27.29Q-89.7249609375-40.53 -84.1049609375-47.97Q-78.4949609375-55.42 -68.5349609375-55.42L-68.5349609375-55.42Q-58.9149609375-55.42 -53.2249609375-47.83Q-47.5349609375-40.23 -47.5349609375-27.29ZM-76.4449609375-27.29L-76.4449609375-27.29Q-76.4449609375-18.8 -74.5849609375-14.45Q-72.7249609375-10.11 -68.62496093749999-10.11L-68.62496093749999-10.11Q-60.8149609375-10.11 -60.8149609375-27.29L-60.8149609375-27.29Q-60.8149609375-35.84 -62.6949609375-40.06Q-64.5749609375-44.29 -68.62496093749999-44.29L-68.62496093749999-44.29Q-72.7249609375-44.29 -74.5849609375-40.06Q-76.4449609375-35.84 -76.4449609375-27.29ZM 1.8791015624999972-27.29L 1.8791015624999972-27.29Q 1.8791015624999972-13.92 -3.7808984374999994-6.47Q-9.450898437500001 0.98 -19.3108984375 0.98L-19.3108984375 0.98Q-25.5608984375 0.98 -30.3508984375-2.44Q-35.1308984375-5.86 -37.7208984375-12.28Q-40.3108984375-18.7 -40.3108984375-27.29L-40.3108984375-27.29Q-40.3108984375-40.53 -34.690898437499996-47.97Q-29.0808984375-55.42 -19.1208984375-55.42L-19.1208984375-55.42Q-9.500898437499998-55.42 -3.8108984375000006-47.83Q 1.8791015624999972-40.23  1.8791015624999972-27.29ZM-27.0308984375-27.29L-27.0308984375-27.29Q-27.0308984375-18.8 -25.1708984375-14.45Q-23.3108984375-10.11 -19.2108984375-10.11L-19.2108984375-10.11Q-11.400898437499997-10.11 -11.400898437499997-27.29L-11.400898437499997-27.29Q-11.400898437499997-35.84 -13.2808984375-40.06Q-15.160898437499998-44.29 -19.2108984375-44.29L-19.2108984375-44.29Q-23.3108984375-44.29 -25.1708984375-40.06Q-27.0308984375-35.84 -27.0308984375-27.29ZM 24.0031640625-75.98L 24.0031640625 0L 11.0131640625 0L 11.0131640625-75.98L 24.0031640625-75.98ZM 47.2901171875-29.3L 47.6801171875-29.3L 50.9501171875-35.79L 61.6901171875-54.39L 75.4601171875-54.39L 61.6901171875-32.08L 76.39011718750001 0L 62.7701171875 0L 52.9501171875-23L 47.880117187500005-18.41L 47.880117187500005 0L 34.890117187499996 0L 34.890117187499996-75.98L 47.880117187500005-75.98L 47.880117187500005-40.19L 47.2901171875-29.3ZM 95.0892578125-54.39L 95.0892578125 0L 82.1092578125 0L 82.1092578125-54.39L 95.0892578125-54.39ZM 81.5692578125-68.6L 81.5692578125-68.6Q 81.5692578125-71.83  83.4492578125-73.71Q 85.3292578125-75.59  88.69925781250001-75.59L 88.69925781250001-75.59Q 91.8692578125-75.59  93.77925781249999-73.71Q 95.6792578125-71.83  95.6792578125-68.6L 95.6792578125-68.6Q 95.6792578125-65.28  93.7292578125-63.45Q 91.7692578125-61.62  88.69925781250001-61.62L 88.69925781250001-61.62Q 85.4692578125-61.62  83.5192578125-63.45Q 81.5692578125-65.28  81.5692578125-68.6ZM 125.1180078125-10.01L 125.1180078125-10.01Q 127.8580078125-10.01  131.0280078125-11.38L 131.0280078125-11.38L 131.0280078125-1.22Q 127.8580078125 0.98  121.5080078125 0.98L 121.5080078125 0.98Q 114.4280078125 0.98  111.0080078125-3.25Q 107.5880078125-7.47  107.5880078125-15.92L 107.5880078125-15.92L 107.5880078125-44.09L 102.3180078125-44.09L 102.3180078125-49.9L 109.1080078125-54.59L 112.4280078125-66.11L 120.7280078125-66.11L 120.7280078125-54.39L 130.5880078125-54.39L 130.5880078125-44.09L 120.7280078125-44.09L 120.7280078125-15.48Q 120.7280078125-10.01  125.1180078125-10.01Z"></path></svg>